<svg width="69" height="45" viewBox="0 0 69 45" fill="none" xmlns="http://www.w3.org/2000/svg">
<path d="M19.8631 23.0831C16.4706 23.0831 13.7063 25.4906 13.7063 28.448C13.7063 31.4061 16.4656 33.8145 19.8631 33.8145C23.2605 33.8145 26.0199 31.4078 26.0199 28.448C26.0199 25.4881 23.2588 23.0831 19.8631 23.0831ZM19.8631 23.9716C22.4968 23.9716 24.6838 25.6245 25.0665 27.7766C24.8727 30.0918 22.6133 31.9252 19.8631 31.9252C17.1137 31.9252 14.8468 30.0918 14.6596 27.7766C15.0498 25.6245 17.2293 23.9716 19.8631 23.9716ZM19.8631 32.9268C17.4439 32.9268 15.4008 31.5284 14.7894 29.6342C15.7153 31.2531 17.6419 32.367 19.8631 32.367C22.0842 32.367 24.0108 31.2506 24.9367 29.6342C24.3253 31.5284 22.2822 32.9268 19.8631 32.9268ZM48.5415 23.0831C45.1491 23.0831 42.3856 25.4906 42.3856 28.448C42.3856 31.4061 45.1441 33.8145 48.5415 33.8145C51.9398 33.8145 54.6983 31.4078 54.6983 28.448C54.6983 25.4881 51.9323 23.0831 48.5415 23.0831ZM48.5415 23.9716C51.1753 23.9716 53.3623 25.6245 53.745 27.7766C53.5511 30.0918 51.2917 31.9252 48.5415 31.9252C45.7921 31.9252 43.5252 30.0918 43.3381 27.7766C43.7216 25.6245 45.9078 23.9716 48.5415 23.9716ZM48.5415 32.9268C46.1224 32.9268 44.0793 31.5284 43.4687 29.6342C44.3937 31.2531 46.3212 32.367 48.5415 32.367C50.7627 32.367 52.6876 31.2506 53.6152 29.6342C53.0021 31.5284 50.9615 32.9268 48.5415 32.9268ZM68.9885 3.53129C68.9885 3.51298 68.9885 3.49468 68.9885 3.47638V3.2942C68.9926 3.19853 68.9677 3.11118 68.9136 3.03299C68.3413 0.140516 65.8489 0.327691 65.8215 0.330186C65.7591 0.335178 65.7025 0.355143 65.6509 0.391746C65.5993 0.427517 65.5603 0.473271 65.5345 0.529839L64.7816 2.10127C64.3765 1.77351 63.9298 1.52062 63.4398 1.34176C62.9506 1.16374 62.4457 1.0689 61.9249 1.05809H6.65353C6.2326 1.06973 5.82497 1.15043 5.43066 1.30183C5.03718 1.45323 4.6803 1.6662 4.36002 1.93989L3.5456 0.238679C3.51898 0.18211 3.47905 0.135525 3.42748 0.0997537C3.3759 0.0631507 3.31933 0.0423535 3.25611 0.0356984C3.22866 0.0356984 0.609045 -0.162291 0.127383 2.96893C0.0400346 3.05961 -0.00239172 3.16858 0.00010399 3.2942L0.889391 28.4638C0.891055 28.5087 0.899373 28.5519 0.914347 28.5935L5.64861 42.3188C5.68272 42.4153 5.74262 42.491 5.8283 42.5468C6.01048 42.9893 6.28085 43.3687 6.64022 43.6856C7.28743 44.2505 8.16341 44.535 9.25318 44.535C9.51772 44.5341 9.78143 44.5183 10.0443 44.4867C10.0892 44.4817 10.1317 44.4693 10.1716 44.4485C10.2115 44.4277 10.2456 44.4002 10.2756 44.3661C10.3047 44.332 10.3271 44.2937 10.3421 44.2513C10.3563 44.2089 10.3629 44.1648 10.3613 44.1199L10.2015 40.477H24.8294C24.9134 40.477 24.9908 40.4554 25.0624 40.4113C25.1339 40.3681 25.1888 40.3082 25.2262 40.2333L29.0479 32.5966H39.5031C39.5289 32.5991 39.5546 32.5991 39.5804 32.5966L43.4046 40.2383C43.4437 40.3123 43.4986 40.3714 43.5702 40.4146C43.6417 40.4587 43.7199 40.4812 43.8031 40.482H58.8869L58.7188 44.421C58.7163 44.4659 58.723 44.5092 58.7371 44.5516C58.7521 44.5949 58.7737 44.6331 58.8028 44.6672C58.832 44.7014 58.8669 44.7288 58.9068 44.7504C58.9459 44.7712 58.9883 44.7845 59.0333 44.7895C59.2962 44.8186 59.5599 44.8345 59.8244 44.8353C60.9142 44.8353 61.7926 44.5508 62.4374 43.9884C62.741 43.7131 62.9847 43.3928 63.1686 43.0268C63.3516 42.6607 63.4622 42.2739 63.5005 41.8663L68.0609 28.6077C68.0759 28.5652 68.0842 28.522 68.0859 28.4779L68.961 3.67936C68.9818 3.63194 68.991 3.58286 68.9885 3.53129ZM6.67017 1.93739H61.9332C62.3883 1.94737 62.8267 2.03722 63.2484 2.20859C63.6694 2.37912 64.0471 2.61871 64.3806 2.92817L63.7509 4.24837H5.47309L4.75933 2.76845C5.01305 2.51472 5.30504 2.31673 5.6353 2.17448C5.96556 2.03223 6.3108 1.95652 6.67017 1.94654V1.93739ZM60.128 11.8901L59.9958 14.9365H59.2038C59.2096 12.3751 59.0574 9.82368 58.7479 7.28143C58.7413 7.23401 58.7205 7.19325 58.688 7.15831C58.6548 7.1242 58.6148 7.10174 58.5682 7.09259C46.2846 4.96379 37.3618 7.07679 37.2794 7.09259C37.1963 7.11422 37.1422 7.16663 37.1181 7.24982C36.9442 7.97522 36.8252 8.70978 36.7595 9.45349H32.3929C32.279 8.10833 32.165 7.28559 32.165 7.27644C32.1575 7.22902 32.1375 7.18826 32.1043 7.15332C32.0702 7.11838 32.0302 7.09675 31.9828 7.0876C19.7017 4.9588 10.7764 7.0693 10.694 7.0876C10.6108 7.10923 10.5567 7.16164 10.5326 7.24483C10.5052 7.34549 9.86877 9.71553 9.97609 14.9273H9.09346L8.95037 11.5898C8.94788 11.5415 8.93623 11.4958 8.91543 11.4525L5.8075 4.96546H63.4115L60.1621 11.7537C60.1422 11.7969 60.1314 11.8427 60.128 11.8901ZM47.0641 9.65647C47.0225 9.59491 46.9693 9.54749 46.9035 9.51255C46.8386 9.47761 46.7688 9.45931 46.6947 9.45848H37.1979C37.2628 8.79962 37.366 8.14659 37.5057 7.50022C38.6454 7.24982 47.0233 5.57357 58.3195 7.50022C58.6098 9.96926 58.7571 12.4474 58.7596 14.934H45.9535V12.8052L47.094 10.0732C47.1556 9.92933 47.1456 9.7904 47.0641 9.65647ZM21.5252 10.0749L22.6657 12.8077V14.9389H10.4211C10.3271 10.4534 10.8013 8.05758 10.9294 7.50188C12.0691 7.25148 20.447 5.57606 31.7457 7.50188C31.7823 7.79803 31.8639 8.4885 31.9462 9.45848H21.9386C21.902 9.45931 21.8662 9.46513 21.8313 9.47428C21.7964 9.48427 21.7631 9.49841 21.7315 9.51588C21.6999 9.53335 21.6707 9.55414 21.6441 9.5791C21.6175 9.60406 21.5942 9.63151 21.5743 9.66146C21.5543 9.69141 21.5376 9.72385 21.5252 9.75796C21.5127 9.79123 21.5052 9.827 21.501 9.86277C21.4969 9.89855 21.4969 9.93432 21.5019 9.97092C21.506 10.0067 21.5152 10.0416 21.5277 10.0749H21.5252ZM2.99656 0.739474L3.8559 2.54051C3.84092 2.61787 3.84592 2.69358 3.87004 2.76761C3.895 2.84248 3.93576 2.90654 3.99316 2.95978C4.02061 2.9839 4.05139 3.00387 4.08384 3.02134L4.91406 4.75582L8.24327 11.7029L8.38219 14.9365H5.92896C5.86906 14.9381 5.8125 14.9506 5.75759 14.9747C5.70352 14.998 5.65527 15.0313 5.61367 15.0737C5.57208 15.1161 5.54047 15.1652 5.51801 15.2201C5.49555 15.275 5.4839 15.3324 5.4839 15.3915V21.0159C5.48806 21.1157 5.5205 21.2047 5.58289 21.2829C5.64529 21.3611 5.72515 21.4135 5.82165 21.4393C6.80327 21.7172 7.73831 22.1073 8.62594 22.6098L9.06434 32.6739C8.19252 33.0566 7.27994 33.2388 6.32743 33.2205C6.20182 33.2155 6.09201 33.2554 5.99967 33.3411C5.9847 33.3544 5.97139 33.3702 5.96057 33.3869L5.09874 12.3318C5.09624 12.2827 5.08543 12.237 5.06463 12.1929L0.89355 3.39652V3.26508C0.891887 3.1952 0.873585 3.12948 0.839478 3.06876C1.15393 1.05143 2.49244 0.776077 2.99822 0.74613L2.99656 0.739474ZM9.93033 32.1615L9.54101 23.1746C11.4968 24.5747 12.352 26.3075 12.0833 28.3298C11.8229 30.3039 10.9452 31.4744 9.93283 32.1773L9.93033 32.1615ZM0.957605 5.1909L4.39163 12.4316L5.47309 39.0953L1.77618 28.3656L0.957605 5.1909ZM9.63668 43.8087C8.54607 43.877 7.69838 43.6582 7.12854 43.1549C6.85485 42.9161 6.64771 42.6291 6.50795 42.2939C6.53457 42.2065 6.53457 42.1183 6.50795 42.0302L6.30248 41.4354L6.26421 40.4637H9.51106L9.63668 43.8087ZM29.493 31.7015L29.8207 31.0459C29.8349 31.021 29.8457 30.9944 29.8532 30.9661L29.864 30.9253H38.7577L38.7827 30.9894C38.7885 31.0085 38.796 31.0276 38.8051 31.0459L39.1337 31.7015H29.493ZM30.2883 30.0377C30.4754 29.7232 30.7009 29.4396 30.9638 29.185C31.2275 28.9313 31.5186 28.7167 31.8397 28.5403C32.1608 28.3648 32.4986 28.2333 32.8546 28.1485C33.2107 28.0628 33.5709 28.0254 33.9369 28.0362C35.5059 27.9971 36.792 28.4729 37.7586 29.4587C37.9341 29.6392 38.0955 29.8322 38.2419 30.0377H30.2883ZM39.617 30.6699C39.4706 30.2881 38.1122 27.0404 33.9394 27.1477C30.8856 27.1477 29.5928 29.3106 29.1685 30.2739C29.1577 30.2956 29.1477 30.3172 29.1394 30.3405C29.0729 30.4994 29.0296 30.6175 29.0113 30.6816L24.5541 39.5803H6.74504V34.0948C7.75828 34.0391 8.72243 33.7945 9.63834 33.3594C9.6999 33.3453 9.75564 33.3186 9.80472 33.2795C11.2281 32.535 12.619 31.1283 12.975 28.4638C13.401 25.276 11.3487 23.227 9.36964 22.025C9.32472 21.9825 9.27314 21.9509 9.21491 21.931C8.31814 21.4077 7.37478 20.9876 6.38483 20.6723V15.8249H23.1357C23.1956 15.8249 23.2538 15.8133 23.3096 15.79C23.3661 15.7667 23.4152 15.7342 23.4576 15.691C23.5009 15.6485 23.5333 15.5995 23.5566 15.5437C23.5799 15.488 23.5916 15.4298 23.5916 15.369V12.7161C23.5916 12.6562 23.5799 12.5988 23.5575 12.5431L22.6316 10.3461H46.0242L45.0983 12.5431C45.0759 12.5988 45.0642 12.6562 45.0642 12.7161V15.3807C45.0642 15.4406 45.0759 15.4988 45.0992 15.5545C45.1225 15.6103 45.1549 15.6602 45.1982 15.7026C45.2406 15.745 45.2897 15.7783 45.3462 15.8016C45.402 15.8241 45.4602 15.8357 45.5201 15.8357H60.0116C60.0399 15.8956 60.0815 15.943 60.1364 15.9788C60.1913 16.0146 60.2512 16.0337 60.3169 16.0362C60.3884 16.0404 60.4541 16.0246 60.5157 15.988C60.5764 15.9514 60.6222 15.9006 60.6521 15.8357H62.251V20.6723C61.4041 20.9427 60.5897 21.2896 59.8086 21.713C59.7379 21.7305 59.6763 21.7637 59.6239 21.8128C57.5442 22.9874 55.2066 25.083 55.6583 28.4638C56.0435 31.3537 57.6465 32.7654 59.188 33.4526C59.2429 33.4933 59.3036 33.5191 59.371 33.5299C60.1755 33.8577 61.0115 34.0457 61.8792 34.0948V39.5803H44.0768L39.617 30.6699ZM56.5501 28.3456C56.2673 26.2326 57.2114 24.4358 59.3569 23.0058L59.4575 22.94L59.0466 32.4052C57.9185 31.7381 56.8396 30.531 56.5501 28.3456ZM61.9657 43.4444C61.3817 43.9493 60.5382 44.1681 59.4459 44.0999L59.6031 40.4562H62.3392C62.3983 40.4554 62.454 40.4429 62.5081 40.4196C62.5621 40.3972 62.6096 40.3647 62.6511 40.3231C62.6919 40.2824 62.7244 40.235 62.7476 40.1809C62.7701 40.1268 62.7826 40.0711 62.7842 40.0128V33.6373C62.7842 33.5765 62.7726 33.5175 62.7485 33.4617C62.7244 33.406 62.6902 33.3569 62.6462 33.3145C62.6021 33.2729 62.5513 33.2413 62.4939 33.2205C62.4365 33.1989 62.3775 33.1897 62.3167 33.193C61.4932 33.2138 60.6945 33.0816 59.9226 32.7946L60.3784 22.3843C61.1571 21.9859 61.9682 21.6706 62.8117 21.4393C62.909 21.4127 62.9889 21.3594 63.0505 21.2796C63.1128 21.2006 63.1445 21.1099 63.147 21.0092V15.3807C63.147 15.3208 63.1353 15.2642 63.1128 15.2085C63.0904 15.1536 63.0588 15.1053 63.0172 15.0621C62.9756 15.0196 62.9273 14.9864 62.8733 14.9631C62.8184 14.9389 62.7618 14.9265 62.7019 14.9248H60.7095L60.8368 11.9808L66.081 1.02398C66.5602 1.04727 67.7756 1.28602 68.1815 3.01219C68.1308 3.08456 68.1033 3.16526 68.0992 3.25344L68.0767 3.90896L64.0129 12.484C63.993 12.5273 63.9813 12.5731 63.9788 12.6205L62.8209 41.0826L62.4972 42.0185C62.4698 42.1025 62.4673 42.1866 62.4889 42.2714C62.5106 42.3571 62.5538 42.4295 62.6179 42.4902C62.4789 42.862 62.261 43.1798 61.9632 43.4444H61.9657ZM63.6186 38.7442L64.6793 12.7145L68.001 5.70584L67.2007 28.3573L63.6186 38.7442Z" fill="url(#paint0_linear_0_1355)"/>
<defs>
<linearGradient id="paint0_linear_0_1355" x1="0" y1="22.4342" x2="68.9889" y2="22.4342" gradientUnits="userSpaceOnUse">
<stop stop-color="#0CBAF1"/>
<stop offset="1" stop-color="#E95CE9"/>
</linearGradient>
</defs>
</svg>
