<svg width="64" height="60" viewBox="0 0 64 60" fill="none" xmlns="http://www.w3.org/2000/svg">
<path d="M57.601 40.8275C57.601 40.8275 57.6171 40.8275 57.6217 40.8275C57.6316 40.8206 57.6408 40.8129 57.65 40.8045C57.6615 40.7961 57.6722 40.7869 57.6822 40.7761C57.6975 40.7623 57.7105 40.747 57.7213 40.7302L57.745 40.698C57.7557 40.6781 57.7649 40.6566 57.7726 40.6352C57.7772 40.626 57.781 40.6152 57.7841 40.6053C57.7933 40.5723 57.7979 40.5394 57.7979 40.5057V12.115C57.7971 12.0399 57.7756 11.9702 57.7335 11.9074C57.6914 11.8445 57.6362 11.7978 57.5665 11.7679L32.2389 0.234206C32.2075 0.174446 32.1638 0.125412 32.1063 0.0886363C32.0129 0.0273438 31.9117 0.0120206 31.803 0.0426669C31.7608 0.0304084 31.7179 0.0258112 31.6742 0.0288761C31.6306 0.0319405 31.5884 0.0419007 31.5486 0.0595223C31.5087 0.0771438 31.4727 0.100895 31.4406 0.130775C31.4084 0.160655 31.3831 0.195132 31.3632 0.234206L6.03329 11.7679C5.96357 11.7978 5.90764 11.8445 5.8655 11.9074C5.82336 11.9702 5.80191 12.0399 5.80114 12.115V40.4965C5.80114 40.5302 5.80574 40.5631 5.8157 40.5961C5.8157 40.6076 5.8157 40.6145 5.82719 40.626C5.83868 40.6375 5.84328 40.6673 5.85477 40.6888L5.87776 40.721C5.89001 40.7371 5.90304 40.7531 5.9176 40.7669L5.94977 40.7953C5.9582 40.8029 5.96816 40.8114 5.97736 40.8183H5.99804L6.0172 40.8321L31.5348 53.1733C31.5869 53.1994 31.6428 53.2116 31.7011 53.2108C31.7593 53.2108 31.8137 53.1986 31.8658 53.1733L57.5826 40.8321L57.601 40.8275ZM49.3832 43.9281L41.4803 40.1632L48.3174 36.9024C48.3573 36.8841 48.3856 36.8549 48.4033 36.8143L56.5123 40.5057L49.3832 43.9281ZM40.1763 48.3481L32.2435 44.5671L41.0474 40.3739L48.9503 44.1411L40.1763 48.3481ZM14.6265 44.1549L22.5616 40.3739L31.3655 44.5671L23.3653 48.3779L14.6265 44.1549ZM7.08292 40.508L15.1919 36.8143C15.2088 36.8549 15.2371 36.8848 15.277 36.9024L22.1141 40.1632L14.186 43.9419L7.08292 40.508ZM24.5934 32.5354L31.3563 35.7586L22.5524 39.9525L15.5972 36.632L24.5934 32.5354ZM25.0569 32.3293L31.8098 29.257L38.5612 32.3293L31.8075 35.5479L25.0569 32.3293ZM39.0155 32.5354L48.014 36.632L41.0474 39.9525L32.2435 35.7586L39.0155 32.5354ZM23.0036 40.1632L31.8075 35.9693L40.6115 40.1632L31.8075 44.3541L23.0036 40.1632ZM57.0332 21.0277L56.6256 20.8423C56.6027 20.8316 56.5781 20.8262 56.5529 20.8254C56.5276 20.8247 56.5031 20.8285 56.4793 20.8369C56.4556 20.8461 56.4349 20.8591 56.4165 20.8768C56.3981 20.8944 56.3835 20.9143 56.3728 20.9373C56.3521 20.9855 56.3506 21.0338 56.369 21.0829C56.3874 21.1319 56.4203 21.1679 56.4678 21.1893L57.0332 21.4468V31.2995L56.6256 31.1141C56.6027 31.1034 56.5781 31.098 56.5529 31.0965C56.5276 31.0957 56.5031 31.0996 56.4793 31.1088C56.4556 31.118 56.4349 31.131 56.4165 31.1478C56.3981 31.1655 56.3835 31.1854 56.3728 31.2091C56.3521 31.2566 56.3506 31.3057 56.369 31.3547C56.3874 31.4037 56.4203 31.439 56.4678 31.4612L57.0332 31.7186V39.9035L32.2826 28.6364V20.4508L32.4887 20.5458C32.5369 20.568 32.586 20.5703 32.6358 20.5519C32.6856 20.5343 32.7216 20.5013 32.7438 20.4531C32.7652 20.4048 32.7668 20.3565 32.7484 20.3067C32.73 20.2569 32.6963 20.2209 32.6488 20.1987L32.2826 20.0317V10.1797L32.4887 10.2747C32.5369 10.2969 32.586 10.2984 32.6358 10.28C32.6856 10.2609 32.7216 10.2279 32.7438 10.1797C32.7645 10.1314 32.7652 10.0831 32.7469 10.0341C32.7285 9.98508 32.6963 9.94983 32.6488 9.92685L32.2826 9.7537V1.09383L57.0332 12.3609V21.0277ZM31.5179 1.00343V9.57059L30.7533 9.91995C30.7135 9.93911 30.6836 9.96899 30.6637 10.0088C30.6438 10.0487 30.6384 10.0908 30.6476 10.1345C30.6575 10.1781 30.679 10.2142 30.7135 10.2425C30.748 10.2709 30.7878 10.2854 30.8322 10.2862C30.8598 10.2854 30.8866 10.2793 30.9111 10.2678L31.5179 9.98967V19.8516L30.7533 20.2033C30.7303 20.214 30.7104 20.2278 30.6928 20.2462C30.6759 20.2646 30.6621 20.286 30.6537 20.3098C30.6445 20.3335 30.6407 20.3581 30.6415 20.3834C30.6422 20.4086 30.6484 20.4324 30.6583 20.4554C30.6928 20.5297 30.751 20.5665 30.8322 20.5672C30.8598 20.5665 30.8866 20.5603 30.9111 20.5481L31.5179 20.2707V28.4556L6.56576 39.9012V31.7186L7.13119 31.4589C7.17946 31.4367 7.2124 31.4007 7.23002 31.3509C7.24841 31.3011 7.24611 31.252 7.22389 31.2045C7.20167 31.1563 7.16643 31.1233 7.11663 31.1057C7.0676 31.0873 7.01933 31.0896 6.97183 31.1118L6.56576 31.2965V21.4468L7.13119 21.187C7.17946 21.1648 7.2124 21.1288 7.23002 21.079C7.24841 21.0292 7.24611 20.981 7.22389 20.9327C7.20167 20.8852 7.16643 20.8522 7.11663 20.8339C7.0676 20.8162 7.01933 20.8178 6.97183 20.84L6.56576 21.0254V12.3609L31.5179 1.00343ZM31.7011 52.4072L23.7966 48.584L31.7984 44.7709L39.7334 48.5519L31.7011 52.4072ZM23.3423 13.5393C23.3201 13.4918 23.3178 13.4435 23.3362 13.3937C23.3545 13.3447 23.3867 13.3087 23.435 13.2872L25.2653 12.449C25.3121 12.4329 25.358 12.4345 25.4032 12.4544C25.4485 12.4736 25.4814 12.5057 25.5013 12.5502C25.522 12.5954 25.5251 12.6406 25.5105 12.6881C25.496 12.7348 25.4676 12.7708 25.4247 12.7961L23.5944 13.6343C23.5698 13.645 23.543 13.6504 23.5162 13.6504C23.4342 13.6511 23.376 13.6136 23.3423 13.5393ZM27.0007 11.8629C26.9785 11.8147 26.9762 11.7664 26.9946 11.7166C27.0122 11.6668 27.0451 11.6308 27.0934 11.6086L28.9237 10.7696C28.9697 10.7543 29.0157 10.7558 29.0609 10.7758C29.1061 10.7949 29.139 10.8271 29.1597 10.8715C29.1804 10.9167 29.1835 10.9619 29.1689 11.0094C29.1543 11.0562 29.1252 11.0922 29.0831 11.1175L27.2527 11.9556C27.2282 11.9671 27.2014 11.9733 27.1738 11.974C27.0926 11.974 27.0344 11.9365 27.0007 11.8629ZM8.69721 20.2546C8.68725 20.2301 8.68189 20.2048 8.68265 20.178C8.68265 20.152 8.68878 20.1267 8.69951 20.1022C8.71024 20.0784 8.72633 20.0577 8.74548 20.0401C8.7654 20.0225 8.78838 20.0102 8.81367 20.0018L10.6409 19.1613C10.6647 19.1475 10.69 19.1391 10.7168 19.136C10.7444 19.133 10.7704 19.1353 10.7965 19.1429C10.8225 19.1514 10.8455 19.1644 10.8662 19.182C10.8869 19.2004 10.903 19.2219 10.9137 19.2464C10.9252 19.2709 10.9313 19.2969 10.9313 19.3245C10.9321 19.3513 10.9267 19.3774 10.916 19.4027C10.9053 19.428 10.89 19.4494 10.87 19.4678C10.8501 19.4862 10.8271 19.5 10.8011 19.5084L8.97073 20.3466C8.94621 20.3588 8.9194 20.365 8.89182 20.3657C8.85274 20.3673 8.81597 20.3588 8.78225 20.3381C8.74854 20.3182 8.72326 20.2899 8.7064 20.2546H8.69721ZM12.3648 18.5752C12.3541 18.5522 12.3479 18.5277 12.3472 18.5024C12.3456 18.4772 12.3502 18.4519 12.3587 18.4281C12.3679 18.4044 12.3809 18.3829 12.3985 18.3645C12.4161 18.3454 12.4368 18.3308 12.4598 18.3209L14.2879 17.4804C14.3116 17.4666 14.3369 17.4582 14.3637 17.4551C14.3905 17.4513 14.4173 17.4543 14.4434 17.462C14.4694 17.4704 14.4924 17.4834 14.5131 17.5011C14.533 17.5195 14.5491 17.5409 14.5606 17.5654C14.5721 17.5899 14.5782 17.616 14.5782 17.6436C14.579 17.6704 14.5736 17.6964 14.5629 17.7217C14.5522 17.7462 14.5369 17.7685 14.5162 17.7868C14.4962 17.8052 14.4733 17.819 14.448 17.8275L12.6199 18.6679C12.5939 18.6794 12.5671 18.6848 12.5387 18.684C12.4583 18.6848 12.4 18.648 12.3648 18.5752ZM16.0232 16.8966C16.0017 16.8491 16.0002 16.8 16.0194 16.751C16.0378 16.702 16.0707 16.6667 16.1182 16.6445L17.9485 15.804C17.9968 15.7826 18.0451 15.781 18.0941 15.7994C18.1432 15.8178 18.1792 15.8515 18.2014 15.899C18.2113 15.922 18.2175 15.9458 18.2182 15.9711C18.219 15.9963 18.2152 16.0209 18.206 16.0446C18.1975 16.0684 18.1845 16.0898 18.1669 16.1082C18.1493 16.1266 18.1294 16.1411 18.1064 16.1511L16.2783 16.9916C16.2301 17.0123 16.181 17.0138 16.132 16.9954C16.0822 16.977 16.0462 16.9441 16.0232 16.8966ZM19.6839 15.2179C19.6617 15.1704 19.6594 15.1222 19.6778 15.0724C19.6961 15.0233 19.7291 14.9873 19.7766 14.9659L21.6069 14.1277C21.6299 14.1154 21.6544 14.1085 21.6805 14.1062C21.7065 14.1047 21.7318 14.1078 21.7563 14.1162C21.7809 14.1246 21.8031 14.1376 21.8222 14.1553C21.8414 14.1729 21.8567 14.1936 21.8674 14.2173C21.8782 14.2411 21.8835 14.2656 21.8843 14.2916C21.8851 14.3177 21.8805 14.343 21.8705 14.3667C21.8613 14.3912 21.8468 14.4119 21.8284 14.4303C21.81 14.4487 21.7885 14.4633 21.764 14.4725L19.9344 15.3106C19.9091 15.3214 19.8831 15.3267 19.8555 15.3267C19.8187 15.3275 19.7843 15.3175 19.7536 15.2984C19.7222 15.2785 19.6992 15.2516 19.6839 15.2179ZM45.3057 15.899C45.3279 15.8508 45.3639 15.8178 45.4137 15.7994C45.4635 15.781 45.5118 15.7826 45.5608 15.804L47.4142 16.6445C47.4609 16.6667 47.4938 16.7027 47.5122 16.7518C47.5306 16.8 47.5298 16.8491 47.5092 16.8966C47.4931 16.931 47.4693 16.9586 47.4371 16.9786C47.4057 16.9985 47.3705 17.0084 47.3329 17.0077C47.3054 17.0077 47.2793 17.0023 47.254 16.9916L45.4007 16.1511C45.3532 16.1289 45.3202 16.0936 45.3011 16.0446C45.2827 15.9956 45.2842 15.9465 45.3057 15.899ZM52.6845 19.2586C52.6953 19.2356 52.7098 19.215 52.7282 19.1981C52.7466 19.1805 52.7673 19.1675 52.791 19.1583C52.8148 19.1498 52.8393 19.1452 52.8646 19.1468C52.8899 19.1475 52.9144 19.1529 52.9374 19.1636L54.7907 20.0018C54.8313 20.021 54.8612 20.0508 54.8811 20.0907C54.9003 20.1305 54.9056 20.1727 54.8964 20.2163C54.8872 20.26 54.865 20.2952 54.8305 20.3236C54.7961 20.3519 54.7562 20.3673 54.7118 20.368C54.6842 20.3673 54.6582 20.3611 54.6329 20.3489L52.7795 19.5107C52.7566 19.5007 52.7366 19.4862 52.719 19.4678C52.7014 19.4494 52.6884 19.428 52.6799 19.4042C52.6707 19.3812 52.6669 19.3567 52.6677 19.3314C52.6684 19.3061 52.6738 19.2816 52.6845 19.2586ZM41.6174 14.2204C41.6396 14.1721 41.6749 14.1392 41.7239 14.1208C41.7729 14.1024 41.822 14.1039 41.8695 14.1254L43.7236 14.9659C43.7711 14.9873 43.804 15.0233 43.8216 15.0724C43.84 15.1222 43.8377 15.1704 43.8163 15.2179C43.801 15.2524 43.7772 15.2792 43.7458 15.2999C43.7144 15.3198 43.6799 15.3298 43.6424 15.329C43.6155 15.3283 43.5903 15.3221 43.5657 15.3106L41.7124 14.4702C41.6649 14.4479 41.6327 14.4127 41.6143 14.3644C41.596 14.3162 41.5967 14.2679 41.6174 14.2204ZM48.9963 17.5777C49.0185 17.5302 49.0537 17.4972 49.1035 17.4789C49.1526 17.4605 49.2008 17.4628 49.2491 17.485L51.1024 18.3232C51.143 18.3423 51.1729 18.3714 51.1928 18.412C51.212 18.4519 51.2174 18.494 51.2082 18.5369C51.199 18.5806 51.1767 18.6166 51.1423 18.6449C51.1078 18.6733 51.068 18.6878 51.0235 18.6886C50.9959 18.6886 50.9699 18.6825 50.9446 18.6702L49.0913 17.8321C49.043 17.8098 49.0093 17.7746 48.9909 17.7248C48.9725 17.675 48.974 17.626 48.9963 17.5777ZM34.2409 10.8623C34.2508 10.8393 34.2646 10.8187 34.283 10.801C34.3014 10.7842 34.3228 10.7704 34.3466 10.762C34.3703 10.7528 34.3949 10.7489 34.4201 10.7497C34.4462 10.7505 34.4699 10.7566 34.4929 10.7673L36.3463 11.6063C36.3869 11.6247 36.4167 11.6545 36.4367 11.6944C36.4566 11.7342 36.4612 11.7764 36.452 11.82C36.4428 11.8637 36.4206 11.8997 36.3861 11.928C36.3516 11.9564 36.3125 11.971 36.2673 11.9717C36.2398 11.9717 36.2137 11.9648 36.1892 11.9533L34.3351 11.1152C34.3121 11.1044 34.2922 11.0899 34.2746 11.0715C34.2577 11.0531 34.2439 11.0324 34.2355 11.0087C34.2263 10.9849 34.2225 10.9604 34.2232 10.9351C34.224 10.9098 34.2301 10.8853 34.2409 10.8623ZM37.9291 12.5318C37.9391 12.5088 37.9537 12.4889 37.972 12.4713C37.9904 12.4544 38.0119 12.4406 38.0356 12.4322C38.0594 12.423 38.0839 12.4192 38.1092 12.4199C38.1345 12.4207 38.1582 12.4268 38.1812 12.4368L40.0345 13.278C40.0583 13.288 40.079 13.3018 40.0958 13.3202C40.1134 13.3385 40.1272 13.36 40.1357 13.3837C40.1449 13.4075 40.1487 13.432 40.1479 13.4573C40.1464 13.4826 40.141 13.5071 40.1295 13.5301C40.1081 13.5776 40.0721 13.6105 40.023 13.6289C39.974 13.6481 39.925 13.6465 39.8775 13.6251L38.0241 12.7846C38.0004 12.7739 37.9805 12.7601 37.9628 12.7409C37.946 12.7226 37.933 12.7019 37.9238 12.6781C37.9146 12.6544 37.9107 12.6298 37.9115 12.6046C37.9123 12.5793 37.9184 12.5548 37.9291 12.5318ZM23.3331 23.8042C23.3109 23.756 23.3086 23.7069 23.327 23.6571C23.3446 23.6081 23.3775 23.5713 23.4258 23.5491L25.263 22.7201C25.3098 22.7048 25.355 22.7063 25.4009 22.7255C25.4462 22.7454 25.4791 22.7768 25.499 22.822C25.5197 22.8665 25.5228 22.9124 25.5082 22.9592C25.4937 23.0067 25.4653 23.0427 25.4224 23.068L23.5921 23.9061C23.5675 23.9176 23.5415 23.9238 23.5139 23.9245C23.4335 23.923 23.376 23.8862 23.3423 23.8134L23.3331 23.8042ZM19.6839 25.499C19.6617 25.4515 19.6594 25.4024 19.6778 25.3534C19.6961 25.3044 19.7291 25.2684 19.7766 25.2461L21.6069 24.408C21.6544 24.3865 21.7027 24.3842 21.7525 24.4026C21.8015 24.4202 21.8376 24.4532 21.859 24.5007C21.8812 24.5482 21.8835 24.5972 21.8651 24.6462C21.8475 24.6953 21.8146 24.7313 21.7671 24.7535L19.9344 25.5848C19.9091 25.5955 19.8831 25.6009 19.8555 25.6009C19.7766 25.6032 19.7191 25.5695 19.6839 25.499ZM16.0232 27.1776C16.0017 27.1294 16.0002 27.0811 16.0194 27.0321C16.0378 26.983 16.0707 26.947 16.1182 26.9256L17.9485 26.0843C17.9968 26.0636 18.0451 26.0621 18.0941 26.0805C18.1432 26.0989 18.1792 26.1318 18.2014 26.1793C18.2113 26.2023 18.2175 26.2268 18.2182 26.2521C18.219 26.2774 18.2152 26.3019 18.206 26.3257C18.1975 26.3494 18.1845 26.3701 18.1669 26.3885C18.1493 26.4069 18.1294 26.4214 18.1064 26.4322L16.2783 27.2726C16.2301 27.2933 16.181 27.2941 16.132 27.2765C16.0822 27.2581 16.0462 27.2251 16.0232 27.1776ZM12.3648 28.8563C12.3548 28.8333 12.3487 28.8095 12.3479 28.7835C12.3472 28.7582 12.351 28.7337 12.3602 28.7107C12.3686 28.687 12.3817 28.6655 12.3993 28.6471C12.4169 28.6287 12.4368 28.6142 12.4598 28.6042L14.2879 27.7637C14.3116 27.7492 14.3369 27.7407 14.3637 27.7377C14.3905 27.7346 14.4173 27.7369 14.4434 27.7453C14.4694 27.7538 14.4924 27.7668 14.5131 27.7844C14.533 27.802 14.5491 27.8235 14.5606 27.8488C14.5721 27.8733 14.5782 27.8993 14.5782 27.9262C14.579 27.9537 14.5736 27.9798 14.5629 28.0043C14.5522 28.0296 14.5369 28.051 14.5162 28.0702C14.4962 28.0886 14.4733 28.1016 14.448 28.1108L12.6199 28.9513C12.5939 28.962 12.5671 28.9674 12.5387 28.9674C12.5004 28.9666 12.4652 28.9551 12.4338 28.9337C12.4023 28.9114 12.3794 28.8823 12.3648 28.8471V28.8563ZM8.7064 30.5349C8.69568 30.5119 8.68955 30.4882 8.68878 30.4621C8.68802 30.4369 8.69185 30.4123 8.70104 30.3886C8.70947 30.3648 8.72326 30.3441 8.74012 30.3258C8.75774 30.3074 8.77842 30.2928 8.80141 30.2829L10.6295 29.4355C10.6532 29.4217 10.6785 29.4125 10.7053 29.4094C10.7321 29.4064 10.7589 29.4087 10.785 29.4171C10.811 29.4255 10.834 29.4386 10.8547 29.4562C10.8754 29.4738 10.8907 29.4952 10.9022 29.5205C10.9137 29.545 10.9198 29.5711 10.9198 29.5979C10.9206 29.6255 10.9152 29.6515 10.9045 29.6768C10.8938 29.7013 10.8785 29.7236 10.8585 29.7419C10.8386 29.7603 10.8156 29.7741 10.7896 29.7826L8.95924 30.6207C8.93472 30.633 8.9079 30.6391 8.88032 30.6391C8.79834 30.6384 8.74012 30.6008 8.7064 30.5257V30.5349ZM27.0099 22.144C26.9877 22.0957 26.9854 22.0467 27.0037 21.9969C27.0214 21.9478 27.0543 21.9118 27.1026 21.8888L28.9329 21.0507C28.9789 21.0346 29.0249 21.0369 29.0701 21.056C29.116 21.076 29.149 21.1074 29.1689 21.1526C29.1896 21.197 29.1927 21.243 29.1781 21.2897C29.1635 21.3372 29.1352 21.3732 29.0923 21.3977L27.2619 22.2367C27.2374 22.2482 27.2114 22.2543 27.1838 22.2551C27.1432 22.2558 27.1064 22.2451 27.0727 22.2229C27.0398 22.2014 27.0152 22.1716 27.0007 22.1348L27.0099 22.144ZM49.0055 27.858C49.0277 27.8105 49.0637 27.7775 49.1127 27.7599C49.1618 27.7415 49.2108 27.7438 49.2583 27.766L51.1116 28.6042C51.1522 28.6234 51.1821 28.6525 51.202 28.6923C51.2212 28.7329 51.2265 28.7743 51.2174 28.818C51.2082 28.8616 51.1859 28.8976 51.1515 28.926C51.117 28.9543 51.0771 28.9689 51.0327 28.9697C51.0051 28.9697 50.9791 28.9635 50.9538 28.9513L49.1005 28.1131C49.0752 28.1031 49.053 28.0893 49.0338 28.0702C49.0147 28.051 49.0001 28.0288 48.9901 28.0043C48.9802 27.979 48.9756 27.953 48.9771 27.9262C48.9779 27.8986 48.9848 27.8733 48.9963 27.8488L49.0055 27.858ZM37.9291 22.8128C37.9391 22.7898 37.9537 22.7699 37.972 22.7523C37.9904 22.7347 38.0119 22.7217 38.0356 22.7125C38.0594 22.704 38.0839 22.7002 38.1092 22.701C38.1345 22.7017 38.1582 22.7071 38.1812 22.7178L40.0345 23.5583C40.0583 23.569 40.0782 23.5836 40.0958 23.602C40.1127 23.6204 40.1257 23.641 40.1349 23.6648C40.1441 23.6885 40.1479 23.7131 40.1472 23.7383C40.1464 23.7636 40.1403 23.7881 40.1295 23.8111C40.1081 23.8586 40.0721 23.8916 40.023 23.91C39.974 23.9284 39.925 23.9268 39.8775 23.9061L38.0241 23.0649C38.0004 23.0549 37.9805 23.0404 37.9628 23.022C37.946 23.0036 37.933 22.9829 37.9238 22.9592C37.9146 22.9354 37.9107 22.9109 37.9115 22.8856C37.9123 22.8603 37.9184 22.8358 37.9291 22.8128ZM41.6174 24.4915C41.6396 24.444 41.6749 24.411 41.7239 24.3926C41.7729 24.3743 41.822 24.375 41.8695 24.3965L43.7236 25.2369C43.7711 25.2592 43.804 25.2952 43.8216 25.3442C43.84 25.3932 43.8377 25.4423 43.8163 25.4898C43.801 25.5235 43.7772 25.5511 43.7458 25.571C43.7144 25.5917 43.6799 25.6009 43.6424 25.6009C43.6148 25.6009 43.5887 25.5955 43.5634 25.5848L41.7101 24.7443C41.6626 24.7213 41.6304 24.6861 41.612 24.6371C41.5944 24.588 41.596 24.539 41.6174 24.4915ZM34.2409 21.1342C34.2508 21.1112 34.2646 21.0905 34.283 21.0729C34.3014 21.0553 34.3228 21.0422 34.3466 21.0331C34.3703 21.0239 34.3949 21.02 34.4201 21.0216C34.4462 21.0223 34.4699 21.0285 34.4929 21.0392L36.3463 21.8797C36.3692 21.8904 36.3899 21.9042 36.4076 21.9226C36.4244 21.9417 36.4374 21.9624 36.4466 21.9861C36.4558 22.0099 36.4596 22.0344 36.4589 22.0597C36.4581 22.085 36.452 22.1087 36.4413 22.1325C36.4068 22.206 36.3493 22.2428 36.2673 22.2436C36.2405 22.2436 36.2137 22.2382 36.1892 22.2267L34.3351 21.3862C34.3121 21.3763 34.2922 21.3617 34.2746 21.3433C34.2577 21.325 34.2439 21.3035 34.2355 21.2798C34.2263 21.2568 34.2225 21.2323 34.2232 21.207C34.224 21.1817 34.2301 21.1572 34.2409 21.1342ZM45.3057 26.1701C45.3279 26.1226 45.3639 26.0897 45.4137 26.0713C45.4635 26.0529 45.5118 26.0537 45.5608 26.0751L47.4142 26.9156C47.4609 26.9386 47.4938 26.9738 47.5122 27.0229C47.5306 27.0719 47.5298 27.1202 47.5092 27.1684C47.4931 27.2029 47.4693 27.2297 47.4371 27.2504C47.4057 27.2703 47.3705 27.2803 47.3329 27.2795C47.3054 27.2795 47.2793 27.2742 47.254 27.2634L45.4007 26.423C45.3532 26.4007 45.3202 26.3647 45.3011 26.3157C45.2827 26.2667 45.2842 26.2184 45.3057 26.1701ZM54.8765 30.528C54.842 30.6016 54.7838 30.6391 54.7026 30.6391C54.675 30.6399 54.649 30.6338 54.6237 30.6207L52.7703 29.7826C52.7228 29.7611 52.6891 29.7251 52.6707 29.6761C52.6524 29.627 52.6539 29.578 52.6753 29.5305C52.6976 29.4822 52.7328 29.4493 52.7818 29.4301C52.8316 29.4117 52.8799 29.4133 52.9282 29.4355L54.7815 30.2737C54.8298 30.2951 54.8635 30.3311 54.8819 30.3809C54.9003 30.4307 54.8987 30.4798 54.8765 30.528ZM63.5364 44.6153C63.5364 48.0561 60.5668 51.3169 55.1776 53.7939C49.9762 56.1835 42.8984 57.6936 35.2323 58.0407H35.2062C35.1304 58.0422 35.0576 58.0292 34.9871 58.0024C34.9158 57.9748 34.853 57.935 34.7986 57.8821C34.7435 57.83 34.7006 57.7687 34.6707 57.6998C34.64 57.63 34.6239 57.5573 34.6216 57.4814C34.6201 57.4056 34.6331 57.3328 34.6607 57.2615C34.6883 57.191 34.7281 57.1282 34.7802 57.0738C34.8331 57.0186 34.8936 56.9757 34.9633 56.9451C35.0323 56.9152 35.1051 56.8984 35.1809 56.8968C50.4374 56.2027 62.3902 50.8097 62.3902 44.6245C62.3902 42.6892 61.2034 40.7417 58.9586 38.9979C58.8927 38.9542 58.8383 38.8991 58.7946 38.8324C58.7517 38.7665 58.7234 38.6937 58.7104 38.6156C58.6973 38.5374 58.7004 38.46 58.7196 38.3834C58.7387 38.306 58.7724 38.2363 58.8207 38.1735C58.869 38.1107 58.9279 38.0601 58.9977 38.021C59.0666 37.9827 59.1409 37.9597 59.2199 37.9521C59.2988 37.9444 59.3761 37.9528 59.4512 37.9774C59.5271 38.0019 59.5945 38.0402 59.6535 38.0931C62.1956 40.0544 63.5364 42.3115 63.5364 44.6153ZM30.2438 57.5174C30.2385 57.6178 30.2086 57.7105 30.1534 57.7955C30.099 57.8798 30.027 57.9457 29.9381 57.9924L26.2567 59.9162C26.1901 59.9523 26.1188 59.9745 26.0438 59.9821C25.9679 59.9898 25.8944 59.9829 25.8216 59.9615C25.7488 59.9392 25.6837 59.9048 25.6247 59.8565C25.5657 59.809 25.5189 59.7515 25.4829 59.6849C25.4477 59.6182 25.4262 59.547 25.4186 59.4719C25.4109 59.3968 25.4178 59.3232 25.44 59.2505C25.4615 59.1784 25.496 59.1126 25.5435 59.0536C25.591 58.9953 25.6484 58.9478 25.7143 58.9118L27.4474 58.0062C11.7235 57.1029 0.00976562 51.4326 0.00976562 44.6153C0.00976562 42.1613 1.51986 39.7763 4.37915 37.7153C4.44045 37.6671 4.50864 37.6318 4.58372 37.6119C4.65957 37.5912 4.73542 37.5859 4.8128 37.5966C4.89018 37.6073 4.96297 37.6326 5.02962 37.6732C5.09704 37.713 5.15297 37.7651 5.19894 37.828C5.24491 37.8916 5.27632 37.9613 5.29318 38.0371C5.3108 38.1137 5.31157 38.1904 5.29778 38.267C5.28322 38.3436 5.25487 38.4148 5.2112 38.48C5.1683 38.5451 5.1139 38.5987 5.04878 38.6416C2.50207 40.4804 1.16819 42.5452 1.16819 44.6153C1.16819 50.7515 12.7517 56.0632 27.7393 56.8647L25.9763 55.6648C25.9135 55.6227 25.8614 55.5691 25.8193 55.5063C25.7779 55.4427 25.7495 55.3737 25.7358 55.2986C25.7212 55.2243 25.722 55.15 25.7373 55.0757C25.7526 55.0014 25.7817 54.9324 25.8246 54.8696C25.8675 54.8068 25.9204 54.7547 25.984 54.7133C26.0476 54.6711 26.1165 54.6436 26.1909 54.629C26.2659 54.6152 26.3403 54.6152 26.4146 54.6313C26.4889 54.6466 26.5578 54.6757 26.6207 54.7179L29.9941 57.0102C30.0768 57.0669 30.1412 57.1405 30.1856 57.2309C30.23 57.3213 30.25 57.417 30.2438 57.5174Z" fill="url(#paint0_linear_0_1364)"/>
<defs>
<linearGradient id="paint0_linear_0_1364" x1="0.00976562" y1="30.0063" x2="63.5364" y2="30.0063" gradientUnits="userSpaceOnUse">
<stop stop-color="#0CBAF1"/>
<stop offset="1" stop-color="#E95CE9"/>
</linearGradient>
</defs>
</svg>
