<svg width="40" height="48" viewBox="0 0 40 48" fill="none" xmlns="http://www.w3.org/2000/svg">
<path fill-rule="evenodd" clip-rule="evenodd" d="M14.9634 39.6509C13.9346 39.6509 13.1003 38.8179 13.0988 37.7894L13.0988 37.7865L13.0893 36.0899C13.0893 36.0894 13.0893 36.0889 13.0893 36.0884C13.0849 33.3199 12.0666 30.623 10.1595 28.5932L10.1595 28.5932C7.91477 26.2042 6.53107 22.9999 6.50051 19.4711C6.43663 12.081 12.4192 5.95589 19.8087 5.853C23.7472 5.79819 27.3041 7.42871 29.8065 10.0713C30.0735 10.3533 30.5186 10.3654 30.8005 10.0984C31.0825 9.83142 31.0946 9.3864 30.8276 9.10443C28.0663 6.18843 24.1369 4.38639 19.7891 4.44689C11.6251 4.56056 5.02375 11.3203 5.09431 19.4833C5.12806 23.3793 6.65736 26.9196 9.13464 29.5561C10.7863 31.314 11.6795 33.6631 11.683 36.0919L11.683 36.0949L11.6926 37.7914C11.6926 37.7919 11.6926 37.7925 11.6926 37.793C11.696 39.5969 13.1595 41.0572 14.9635 41.0571L25.0631 41.0563C26.8711 41.0562 28.336 39.5892 28.3335 37.7812L28.3335 37.7783L28.3238 36.0164C28.3238 36.0158 28.3238 36.0153 28.3238 36.0147C28.3208 33.6288 29.1976 31.3195 30.8259 29.6006L30.3509 29.1506L30.8259 29.6006C33.3558 26.9298 34.9088 23.3216 34.9088 19.3519C34.9088 16.4702 34.0902 13.7776 32.6729 11.4961C32.468 11.1662 32.0344 11.065 31.7046 11.2699C31.3747 11.4748 31.2735 11.9083 31.4784 12.2382C32.7614 14.3035 33.5026 16.7401 33.5026 19.3519C33.5026 22.9476 32.0974 26.2134 29.805 28.6335C27.916 30.6276 26.9136 33.2898 26.9176 36.0184L26.9176 36.0213L26.9273 37.7831C26.9273 37.7835 26.9273 37.7839 26.9273 37.7843C26.9281 38.8143 26.0933 39.65 25.063 39.65L14.9634 39.6509Z" fill="url(#paint0_linear_0_1983)"/>
<path fill-rule="evenodd" clip-rule="evenodd" d="M17.422 48C15.6844 48.0002 14.2777 46.5876 14.2852 44.85L17.422 48ZM17.422 48L22.5665 47.9994C22.5665 47.9994 22.5665 47.9994 22.5665 47.9994C24.2933 47.9993 25.6953 46.6035 25.7028 44.8768L25.7225 40.3571C25.7233 40.1701 25.6496 39.9904 25.5176 39.8579C25.3856 39.7254 25.2063 39.6509 25.0193 39.6509L15.0079 39.6519C14.6208 39.652 14.3066 39.9649 14.3049 40.352L14.2852 44.85M15.6914 44.856C15.6914 44.856 15.6914 44.856 15.6914 44.856L15.708 41.0581L24.3132 41.0572L24.2966 44.8707C24.2924 45.8231 23.5191 46.5931 22.5664 46.5932L17.4219 46.5938C16.4633 46.5939 15.6873 45.8146 15.6914 44.856Z" fill="url(#paint1_linear_0_1983)"/>
<path fill-rule="evenodd" clip-rule="evenodd" d="M16.1932 23.7732C16.2156 24.1445 16.5232 24.4341 16.8951 24.4341H23.0985C23.4489 24.4341 23.7458 24.1761 23.7948 23.8291C23.8682 23.3082 24.0253 22.5989 24.381 21.8197L24.381 21.8197C24.7541 21.0022 25.2168 20.3902 25.5949 19.97L25.5951 19.9698C25.8947 19.6365 25.9577 19.1488 25.743 18.7486M17.1064 21.4823C17.3306 22.0455 17.4565 22.5731 17.5264 23.0278L17.1064 21.4823ZM17.5264 23.0278H22.5094C22.621 22.5053 22.8024 21.8914 23.1017 21.2358C23.4968 20.3702 23.9756 19.6983 24.393 19.2082C23.8417 18.1939 23.2071 17.123 22.4767 16.0173L22.4767 16.0173C21.6462 14.7601 20.8063 13.6315 19.9922 12.6265C19.1597 13.6387 18.297 14.7888 17.4478 16.0832C16.7448 17.1548 16.1382 18.1922 15.6146 19.1728C16.0962 19.6741 16.6896 20.4349 17.1064 21.4823M15.4986 19.3916C15.4987 19.3915 15.4987 19.3915 15.4987 19.3915L15.4986 19.3916ZM24.5493 19.0297C24.5493 19.0297 24.5492 19.0298 24.5491 19.0299C24.5492 19.0298 24.5493 19.0297 24.5493 19.0297ZM24.5039 19.4135C24.5039 19.4135 24.5039 19.4136 24.5039 19.4136L24.5039 19.4135ZM16.1932 23.7732C16.1659 23.32 16.0752 22.6941 15.7999 22.0024L16.1932 23.7732ZM15.7999 22.0024L15.7998 22.0023L15.7999 22.0024ZM15.7998 22.0023C15.423 21.0554 14.8642 20.3977 14.4538 19.9997L15.7998 22.0023ZM14.4537 19.9995C14.1089 19.6652 14.0369 19.1497 14.2541 18.737L14.4537 19.9995ZM25.7429 18.7485C25.1476 17.639 24.4552 16.461 23.65 15.2422C22.7666 13.9048 21.8728 12.7083 21.0085 11.6473M14.2541 18.7368C14.8229 17.6554 15.4899 16.5041 16.272 15.3118L14.2541 18.7368ZM18.9835 11.6394C18.0979 12.7098 17.1776 13.9315 16.272 15.3118L16.272 15.3118M21.0084 11.6472C20.4867 11.0067 19.5102 11.0033 18.9836 11.6393L18.9835 11.6394" fill="url(#paint2_linear_0_1983)"/>
<path fill-rule="evenodd" clip-rule="evenodd" d="M16.1953 26.5715C16.1953 26.9599 16.5101 27.2747 16.8984 27.2747H23.1019C23.4902 27.2747 23.805 26.9599 23.805 26.5715V23.7308C23.805 23.3425 23.4902 23.0277 23.1019 23.0277H16.8984C16.5101 23.0277 16.1953 23.3425 16.1953 23.7308V26.5715ZM17.6016 25.8684V24.4339H22.3987V25.8684H17.6016Z" fill="url(#paint3_linear_0_1983)"/>
<path fill-rule="evenodd" clip-rule="evenodd" d="M23.8653 41.0562C24.2536 41.0562 24.5684 40.7414 24.5684 40.353V27.3246C24.5684 26.5189 23.9145 25.8686 23.1114 25.8686H16.8887C16.0856 25.8686 15.4316 26.5189 15.4316 27.3246V37.3158C15.4316 37.7041 15.7464 38.0189 16.1348 38.0189C16.5231 38.0189 16.8379 37.7041 16.8379 37.3158V27.3246C16.8379 27.2981 16.8597 27.2748 16.8887 27.2748H23.1114C23.1404 27.2748 23.1622 27.2981 23.1622 27.3246V40.353C23.1622 40.7414 23.477 41.0562 23.8653 41.0562Z" fill="url(#paint4_linear_0_1983)"/>
<path fill-rule="evenodd" clip-rule="evenodd" d="M20 20.2478C20.3883 20.2478 20.7031 19.933 20.7031 19.5447V11.8678C20.7031 11.4794 20.3883 11.1646 20 11.1646C19.6117 11.1646 19.2969 11.4794 19.2969 11.8678V19.5447C19.2969 19.933 19.6117 20.2478 20 20.2478Z" fill="url(#paint5_linear_0_1983)"/>
<path fill-rule="evenodd" clip-rule="evenodd" d="M15.4336 29.8281C15.4336 30.2165 15.7484 30.5312 16.1367 30.5312H23.8663C24.2546 30.5312 24.5694 30.2165 24.5694 29.8281C24.5694 29.4398 24.2546 29.125 23.8663 29.125H16.1367C15.7484 29.125 15.4336 29.4398 15.4336 29.8281Z" fill="url(#paint6_linear_0_1983)"/>
<path fill-rule="evenodd" clip-rule="evenodd" d="M19.9941 2.70654C20.3825 2.70654 20.6973 2.39174 20.6973 2.00342V0.703105C20.6973 0.31478 20.3825 -1.95503e-05 19.9941 -1.95503e-05C19.6058 -1.95503e-05 19.291 0.31478 19.291 0.703105V2.00342C19.291 2.39174 19.6058 2.70654 19.9941 2.70654Z" fill="url(#paint7_linear_0_1983)"/>
<path fill-rule="evenodd" clip-rule="evenodd" d="M36.5078 19.7654C36.5078 20.1537 36.8226 20.4685 37.2109 20.4685H38.4707C38.8591 20.4685 39.1739 20.1537 39.1739 19.7654C39.1739 19.3771 38.8591 19.0623 38.4707 19.0623H37.2109C36.8226 19.0623 36.5078 19.3771 36.5078 19.7654Z" fill="url(#paint8_linear_0_1983)"/>
<path fill-rule="evenodd" clip-rule="evenodd" d="M0.828125 19.7654C0.828125 20.1537 1.14292 20.4685 1.53125 20.4685H2.79106C3.17939 20.4685 3.49419 20.1537 3.49419 19.7654C3.49419 19.3771 3.17939 19.0623 2.79106 19.0623H1.53125C1.14292 19.0623 0.828125 19.3771 0.828125 19.7654Z" fill="url(#paint9_linear_0_1983)"/>
<path fill-rule="evenodd" clip-rule="evenodd" d="M31.6807 7.71078C31.9595 7.981 32.4047 7.97397 32.6749 7.69508L33.5658 6.77558C33.836 6.49669 33.829 6.05155 33.5501 5.78134C33.2712 5.51112 32.8261 5.51815 32.5559 5.79704L31.6649 6.71654C31.3947 6.99543 31.4018 7.44057 31.6807 7.71078Z" fill="url(#paint10_linear_0_1983)"/>
<path fill-rule="evenodd" clip-rule="evenodd" d="M6.45214 33.7494C6.73103 34.0196 7.17616 34.0125 7.44638 33.7337L8.33729 32.8142C8.6075 32.5353 8.60047 32.0901 8.32158 31.8199C8.04269 31.5497 7.59756 31.5567 7.32734 31.8356L6.43643 32.7551C6.16622 33.034 6.17325 33.4791 6.45214 33.7494Z" fill="url(#paint11_linear_0_1983)"/>
<path fill-rule="evenodd" clip-rule="evenodd" d="M33.5501 33.7496C33.829 33.4794 33.836 33.0342 33.5658 32.7554L32.6749 31.8359C32.4047 31.557 31.9595 31.5499 31.6807 31.8202C31.4018 32.0904 31.3947 32.5355 31.6649 32.8144L32.5559 33.7339C32.8261 34.0128 33.2712 34.0198 33.5501 33.7496Z" fill="url(#paint12_linear_0_1983)"/>
<path fill-rule="evenodd" clip-rule="evenodd" d="M8.32158 7.71078C8.60047 7.44057 8.6075 6.99543 8.33729 6.71654L7.44638 5.79704C7.17616 5.51815 6.73103 5.51112 6.45214 5.78134C6.17325 6.05155 6.16622 6.49669 6.43643 6.77558L7.32734 7.69508C7.59756 7.97397 8.04269 7.981 8.32158 7.71078Z" fill="url(#paint13_linear_0_1983)"/>
<path fill-rule="evenodd" clip-rule="evenodd" d="M14.2852 43.5916C14.2852 43.9799 14.6 44.2947 14.9883 44.2947H22.2888C22.6771 44.2947 22.9919 43.9799 22.9919 43.5916C22.9919 43.2032 22.6771 42.8884 22.2888 42.8884H14.9883C14.6 42.8884 14.2852 43.2032 14.2852 43.5916Z" fill="url(#paint14_linear_0_1983)"/>
<defs>
<linearGradient id="paint0_linear_0_1983" x1="5.09375" y1="22.7513" x2="34.9088" y2="22.7513" gradientUnits="userSpaceOnUse">
<stop stop-color="#0CBAF1"/>
<stop offset="1" stop-color="#E95CE9"/>
</linearGradient>
<linearGradient id="paint1_linear_0_1983" x1="14.2852" y1="43.8255" x2="25.7225" y2="43.8255" gradientUnits="userSpaceOnUse">
<stop stop-color="#0CBAF1"/>
<stop offset="1" stop-color="#E95CE9"/>
</linearGradient>
<linearGradient id="paint2_linear_0_1983" x1="14.1309" y1="17.7993" x2="25.87" y2="17.7993" gradientUnits="userSpaceOnUse">
<stop stop-color="#0CBAF1"/>
<stop offset="1" stop-color="#E95CE9"/>
</linearGradient>
<linearGradient id="paint3_linear_0_1983" x1="16.1953" y1="25.1512" x2="23.805" y2="25.1512" gradientUnits="userSpaceOnUse">
<stop stop-color="#0CBAF1"/>
<stop offset="1" stop-color="#E95CE9"/>
</linearGradient>
<linearGradient id="paint4_linear_0_1983" x1="15.4316" y1="33.4624" x2="24.5684" y2="33.4624" gradientUnits="userSpaceOnUse">
<stop stop-color="#0CBAF1"/>
<stop offset="1" stop-color="#E95CE9"/>
</linearGradient>
<linearGradient id="paint5_linear_0_1983" x1="19.2969" y1="15.7062" x2="20.7031" y2="15.7062" gradientUnits="userSpaceOnUse">
<stop stop-color="#0CBAF1"/>
<stop offset="1" stop-color="#E95CE9"/>
</linearGradient>
<linearGradient id="paint6_linear_0_1983" x1="15.4336" y1="29.8281" x2="24.5694" y2="29.8281" gradientUnits="userSpaceOnUse">
<stop stop-color="#0CBAF1"/>
<stop offset="1" stop-color="#E95CE9"/>
</linearGradient>
<linearGradient id="paint7_linear_0_1983" x1="19.291" y1="1.35326" x2="20.6973" y2="1.35326" gradientUnits="userSpaceOnUse">
<stop stop-color="#0CBAF1"/>
<stop offset="1" stop-color="#E95CE9"/>
</linearGradient>
<linearGradient id="paint8_linear_0_1983" x1="36.5078" y1="19.7654" x2="39.1739" y2="19.7654" gradientUnits="userSpaceOnUse">
<stop stop-color="#0CBAF1"/>
<stop offset="1" stop-color="#E95CE9"/>
</linearGradient>
<linearGradient id="paint9_linear_0_1983" x1="0.828125" y1="19.7654" x2="3.49419" y2="19.7654" gradientUnits="userSpaceOnUse">
<stop stop-color="#0CBAF1"/>
<stop offset="1" stop-color="#E95CE9"/>
</linearGradient>
<linearGradient id="paint10_linear_0_1983" x1="31.4668" y1="6.74606" x2="33.764" y2="6.74606" gradientUnits="userSpaceOnUse">
<stop stop-color="#0CBAF1"/>
<stop offset="1" stop-color="#E95CE9"/>
</linearGradient>
<linearGradient id="paint11_linear_0_1983" x1="6.23828" y1="32.7846" x2="8.53544" y2="32.7846" gradientUnits="userSpaceOnUse">
<stop stop-color="#0CBAF1"/>
<stop offset="1" stop-color="#E95CE9"/>
</linearGradient>
<linearGradient id="paint12_linear_0_1983" x1="31.4668" y1="32.7849" x2="33.764" y2="32.7849" gradientUnits="userSpaceOnUse">
<stop stop-color="#0CBAF1"/>
<stop offset="1" stop-color="#E95CE9"/>
</linearGradient>
<linearGradient id="paint13_linear_0_1983" x1="6.23828" y1="6.74606" x2="8.53544" y2="6.74606" gradientUnits="userSpaceOnUse">
<stop stop-color="#0CBAF1"/>
<stop offset="1" stop-color="#E95CE9"/>
</linearGradient>
<linearGradient id="paint14_linear_0_1983" x1="14.2852" y1="43.5916" x2="22.9919" y2="43.5916" gradientUnits="userSpaceOnUse">
<stop stop-color="#0CBAF1"/>
<stop offset="1" stop-color="#E95CE9"/>
</linearGradient>
</defs>
</svg>
 