<svg width="48" height="48" viewBox="0 0 48 48" fill="none" xmlns="http://www.w3.org/2000/svg">
<mask id="mask0_0_2070" style="mask-type:luminance" maskUnits="userSpaceOnUse" x="0" y="0" width="48" height="48">
<path d="M0 3.8147e-06H48V48H0V3.8147e-06Z" fill="white"/>
</mask>
<g mask="url(#mask0_0_2070)">
<path fill-rule="evenodd" clip-rule="evenodd" d="M39.7967 40.1619C39.7967 40.5502 40.1115 40.865 40.4998 40.865H43.2067C45.856 40.865 47.9997 38.7109 47.9997 36.0584V16.4754C47.9997 13.8229 45.856 11.6688 43.2067 11.6688H32.4287C32.0404 11.6688 31.7256 11.9836 31.7256 12.3719C31.7256 12.7603 32.0404 13.0751 32.4287 13.0751H43.2067C45.075 13.0751 46.5935 14.5952 46.5935 16.4754V36.0584C46.5935 37.9386 45.075 39.4587 43.2067 39.4587H40.4998C40.1115 39.4587 39.7967 39.7735 39.7967 40.1619Z" fill="url(#paint0_linear_0_2070)"/>
<path fill-rule="evenodd" clip-rule="evenodd" d="M6.56255 47.9381C6.81494 48.0516 7.11043 48.0065 7.31748 47.8229L15.1638 40.8649H36.3454C36.7337 40.8649 37.0485 40.5501 37.0485 40.1617C37.0485 39.7734 36.7337 39.4586 36.3454 39.4586H14.897C14.725 39.4586 14.5591 39.5216 14.4305 39.6357L7.55409 45.7336V40.1617C7.55409 39.7734 7.23929 39.4586 6.85097 39.4586H4.79306C2.92484 39.4586 1.40625 37.9385 1.40625 36.0583V16.4753C1.40625 14.5952 2.92486 13.0749 4.79306 13.0749H15.3665C15.7548 13.0749 16.0696 12.7601 16.0696 12.3718C16.0696 11.9835 15.7548 11.6687 15.3665 11.6687H4.79306C2.14383 11.6687 0 13.8229 0 16.4753V36.0583C0 38.7108 2.14385 40.8649 4.79306 40.8649H6.14784V47.2969C6.14784 47.5736 6.31017 47.8246 6.56255 47.9381Z" fill="url(#paint1_linear_0_2070)"/>
<path fill-rule="evenodd" clip-rule="evenodd" d="M7.53125 22.0129C7.53125 22.4013 7.84605 22.7161 8.23437 22.7161H39.7661C40.1544 22.7161 40.4692 22.4013 40.4692 22.0129C40.4692 21.6246 40.1544 21.3098 39.7661 21.3098H8.23437C7.84605 21.3098 7.53125 21.6246 7.53125 22.0129Z" fill="url(#paint2_linear_0_2070)"/>
<path fill-rule="evenodd" clip-rule="evenodd" d="M7.53125 26.7651C7.53125 27.1535 7.84605 27.4683 8.23437 27.4683H39.7661C40.1544 27.4683 40.4692 27.1535 40.4692 26.7651C40.4692 26.3768 40.1544 26.062 39.7661 26.062H8.23437C7.84605 26.062 7.53125 26.3768 7.53125 26.7651Z" fill="url(#paint3_linear_0_2070)"/>
<path fill-rule="evenodd" clip-rule="evenodd" d="M7.53125 31.5173C7.53125 31.9057 7.84605 32.2205 8.23437 32.2205H27.1558C27.5442 32.2205 27.859 31.9057 27.859 31.5173C27.859 31.129 27.5442 30.8142 27.1558 30.8142H8.23437C7.84605 30.8142 7.53125 31.129 7.53125 31.5173Z" fill="url(#paint4_linear_0_2070)"/>
<path fill-rule="evenodd" clip-rule="evenodd" d="M14.4199 9.58033C14.4199 14.8714 18.7093 19.1606 24.0003 19.1606C29.2915 19.1606 33.5807 14.8714 33.5807 9.58033C33.5807 4.28926 29.2915 -7.24792e-05 24.0003 -7.24792e-05C22.3019 -7.24792e-05 20.7046 0.442566 19.3198 1.21932C18.9812 1.40929 18.8606 1.83786 19.0506 2.17654C19.2406 2.51522 19.6691 2.63577 20.0078 2.44579C21.1879 1.78385 22.549 1.40618 24.0003 1.40618C28.5148 1.40618 32.1745 5.0659 32.1745 9.58033C32.1745 14.0948 28.5149 17.7544 24.0003 17.7544C19.4859 17.7544 15.8262 14.0947 15.8262 9.58033C15.8262 7.74177 16.4324 6.04681 17.4561 4.68166C17.689 4.37098 17.626 3.93026 17.3153 3.6973C17.0047 3.46433 16.5639 3.52733 16.331 3.83801C15.1311 5.43817 14.4199 7.42721 14.4199 9.58033Z" fill="url(#paint5_linear_0_2070)"/>
<path fill-rule="evenodd" clip-rule="evenodd" d="M18.4363 15.5652C19.6196 13.7441 21.6696 12.5414 24.0002 12.5414C26.2784 12.5414 28.3024 13.737 29.5413 15.5866C28.0838 16.9324 26.1389 17.7544 24.0004 17.7544C21.8505 17.7544 19.8963 16.9238 18.4363 15.5652ZM17.041 16.1608C18.7861 18.0059 21.258 19.1606 24.0004 19.1606C26.7341 19.1606 29.1991 18.0129 30.9433 16.1782C31.1569 15.9535 31.1981 15.6154 31.0448 15.346C29.6215 12.8456 27.0155 11.1352 24.0002 11.1352C20.947 11.1352 18.294 12.8384 16.9339 15.342C16.7887 15.6094 16.8319 15.9398 17.041 16.1608Z" fill="url(#paint6_linear_0_2070)"/>
<path fill-rule="evenodd" clip-rule="evenodd" d="M19.8711 8.43591C19.8711 10.7163 21.7196 12.5649 24.0001 12.5649C26.2805 12.5649 28.1292 10.7163 28.1292 8.43591C28.1292 6.15542 26.2805 4.30688 24.0001 4.30688C21.7196 4.30688 19.8711 6.15543 19.8711 8.43591ZM24.0001 11.1587C22.4963 11.1587 21.2773 9.93966 21.2773 8.43591C21.2773 6.93208 22.4963 5.71313 24.0001 5.71313C25.5039 5.71313 26.7229 6.93209 26.7229 8.43591C26.7229 9.93965 25.5039 11.1587 24.0001 11.1587Z" fill="url(#paint7_linear_0_2070)"/>
</g>
<defs>
<linearGradient id="paint0_linear_0_2070" x1="31.7256" y1="26.2669" x2="47.9997" y2="26.2669" gradientUnits="userSpaceOnUse">
<stop stop-color="#0CBAF1"/>
<stop offset="1" stop-color="#E95CE9"/>
</linearGradient>
<linearGradient id="paint1_linear_0_2070" x1="0" y1="29.8343" x2="37.0485" y2="29.8343" gradientUnits="userSpaceOnUse">
<stop stop-color="#0CBAF1"/>
<stop offset="1" stop-color="#E95CE9"/>
</linearGradient>
<linearGradient id="paint2_linear_0_2070" x1="7.53125" y1="22.0129" x2="40.4692" y2="22.0129" gradientUnits="userSpaceOnUse">
<stop stop-color="#0CBAF1"/>
<stop offset="1" stop-color="#E95CE9"/>
</linearGradient>
<linearGradient id="paint3_linear_0_2070" x1="7.53125" y1="26.7651" x2="40.4692" y2="26.7651" gradientUnits="userSpaceOnUse">
<stop stop-color="#0CBAF1"/>
<stop offset="1" stop-color="#E95CE9"/>
</linearGradient>
<linearGradient id="paint4_linear_0_2070" x1="7.53125" y1="31.5173" x2="27.859" y2="31.5173" gradientUnits="userSpaceOnUse">
<stop stop-color="#0CBAF1"/>
<stop offset="1" stop-color="#E95CE9"/>
</linearGradient>
<linearGradient id="paint5_linear_0_2070" x1="14.4199" y1="9.58029" x2="33.5807" y2="9.58029" gradientUnits="userSpaceOnUse">
<stop stop-color="#0CBAF1"/>
<stop offset="1" stop-color="#E95CE9"/>
</linearGradient>
<linearGradient id="paint6_linear_0_2070" x1="16.8486" y1="15.1479" x2="31.1368" y2="15.1479" gradientUnits="userSpaceOnUse">
<stop stop-color="#0CBAF1"/>
<stop offset="1" stop-color="#E95CE9"/>
</linearGradient>
<linearGradient id="paint7_linear_0_2070" x1="19.8711" y1="8.43591" x2="28.1292" y2="8.43591" gradientUnits="userSpaceOnUse">
<stop stop-color="#0CBAF1"/>
<stop offset="1" stop-color="#E95CE9"/>
</linearGradient>
</defs>
</svg>
