<svg width="48" height="48" viewBox="0 0 48 48" fill="none" xmlns="http://www.w3.org/2000/svg">
<mask id="mask0_0_1945" style="mask-type:luminance" maskUnits="userSpaceOnUse" x="0" y="0" width="48" height="48">
<path d="M0 3.8147e-06H48V48H0V3.8147e-06Z" fill="white"/>
</mask>
<g mask="url(#mask0_0_1945)">
<path fill-rule="evenodd" clip-rule="evenodd" d="M26.0665 27.9994C24.6894 28.0022 23.3122 28.0022 21.935 27.9994C21.5467 27.9986 21.2313 28.3127 21.2305 28.701C21.2297 29.0894 21.5438 29.4048 21.9322 29.4056C23.3112 29.4084 24.6903 29.4084 26.0694 29.4056C26.4577 29.4048 26.7719 29.0894 26.7711 28.701C26.7703 28.3127 26.4549 27.9986 26.0665 27.9994Z" fill="url(#paint0_linear_0_1945)"/>
<path fill-rule="evenodd" clip-rule="evenodd" d="M33.9842 37.2886C34.1874 36.9577 34.084 36.5247 33.7531 36.3215C31.8738 35.1669 30.4579 33.2742 29.9758 30.9449C29.8971 30.5647 29.525 30.3202 29.1447 30.3989C28.7645 30.4776 28.52 30.8497 28.5987 31.2299C29.1629 33.9556 30.822 36.1711 33.017 37.5197C33.3479 37.7229 33.7809 37.6195 33.9842 37.2886Z" fill="url(#paint1_linear_0_1945)"/>
<path fill-rule="evenodd" clip-rule="evenodd" d="M7.61569 38.6863C12.9528 39.9749 18.2941 36.5883 19.4032 31.2301C19.4819 30.8498 19.2374 30.4777 18.8572 30.399C18.4769 30.3203 18.1048 30.5648 18.0261 30.945C17.0784 35.5239 12.511 38.4222 7.94477 37.3191L7.94252 37.3185C7.8849 37.3048 7.82801 37.2911 7.76969 37.2769L7.76933 37.2769C3.48201 36.242 0.743975 32.0363 1.54574 27.7026C2.22396 24.0371 3.14499 20.3304 4.23952 16.5877C5.2414 13.1642 8.33129 10.7762 11.8987 10.6543L11.8989 10.6543C19.9668 10.3764 28.0338 10.3764 36.1017 10.6543L36.1019 10.6543C39.6693 10.7762 42.7592 13.1642 43.761 16.5877C44.8556 20.3304 45.7766 24.0371 46.4548 27.7026C47.2566 32.0363 44.5186 36.242 40.2312 37.2769L40.2309 37.2769C40.2027 37.2838 40.1742 37.2906 40.1449 37.2976L40.1445 37.2977L40.1433 37.298C40.1146 37.3049 40.0851 37.312 40.0558 37.3191M7.61569 38.6863C7.5559 38.672 7.49724 38.6578 7.43998 38.644L7.43937 38.6438C7.43925 38.6438 7.43913 38.6438 7.43901 38.6438C2.42841 37.4341 -0.775253 32.518 0.162958 27.4468L0.16296 27.4468C0.851614 23.7249 1.78495 19.971 2.8898 16.193L2.88984 16.1929C4.06297 12.184 7.67983 9.39147 11.8505 9.2489C19.9506 8.9699 28.0499 8.9699 36.1501 9.2489C40.3207 9.39147 43.9376 12.184 45.1107 16.1929L45.1108 16.193C46.2156 19.9709 47.1489 23.7249 47.8376 27.4468C48.7758 32.518 45.5722 37.4341 40.5616 38.6438C40.5318 38.651 40.5018 38.6581 40.4726 38.6652C40.4432 38.6722 40.4146 38.6791 40.3862 38.6859L40.386 38.686C38.8188 39.0647 37.2504 39.0397 35.7881 38.6797C35.4111 38.5868 35.1806 38.2059 35.2735 37.8288C35.3663 37.4518 35.7472 37.2213 36.1243 37.3142C37.3732 37.6217 38.7129 37.6435 40.0556 37.3191" fill="url(#paint2_linear_0_1945)"/>
<path fill-rule="evenodd" clip-rule="evenodd" d="M18.8145 30.386C17.4187 30.386 16.2871 29.2545 16.2871 27.8587C16.2871 26.4629 17.4187 25.3314 18.8145 25.3314C20.2103 25.3314 21.3418 26.4629 21.3418 27.8587C21.3418 29.2545 20.2103 30.386 18.8145 30.386ZM14.8809 27.8587C14.8809 30.0312 16.6421 31.7922 18.8145 31.7922C20.9869 31.7922 22.7481 30.0312 22.7481 27.8587C22.7481 25.6862 20.9869 23.9251 18.8145 23.9251C16.6421 23.9251 14.8809 25.6862 14.8809 27.8587Z" fill="url(#paint3_linear_0_1945)"/>
<path fill-rule="evenodd" clip-rule="evenodd" d="M29.1856 30.386C27.7898 30.386 26.6582 29.2545 26.6582 27.8587C26.6582 26.4629 27.7898 25.3314 29.1856 25.3314C30.5814 25.3314 31.7129 26.4629 31.7129 27.8587C31.7129 29.2545 30.5814 30.386 29.1856 30.386ZM25.252 27.8587C25.252 30.0312 27.0132 31.7922 29.1856 31.7922C31.358 31.7922 33.1192 30.0312 33.1192 27.8587C33.1192 25.6862 31.358 23.9251 29.1856 23.9251C27.0132 23.9251 25.252 25.6862 25.252 27.8587Z" fill="url(#paint4_linear_0_1945)"/>
<path fill-rule="evenodd" clip-rule="evenodd" d="M10.2615 26.7671L10.3033 26.7671C11.8313 26.7663 13.0728 25.5466 13.1141 24.0244L13.1141 24.0243C13.1153 23.9796 13.1164 23.9349 13.1176 23.8903C13.1623 23.8891 13.2069 23.8879 13.2516 23.8867L13.2517 23.8867C14.774 23.8455 15.9938 22.604 15.9944 21.0759V21.0342C15.9938 19.5061 14.774 18.2646 13.2517 18.2233L13.2516 18.2233C13.2069 18.2221 13.1623 18.221 13.1176 18.2198C13.1164 18.1751 13.1153 18.1304 13.1141 18.0857L13.1141 18.0856C13.0728 16.5633 11.8313 15.3437 10.3033 15.3429H10.2615C8.73355 15.3437 7.49195 16.5633 7.45066 18.0856L7.45066 18.0857C7.44946 18.1304 7.44828 18.1751 7.44712 18.2198C7.40248 18.221 7.35785 18.2221 7.31322 18.2233L7.31313 18.2233C5.79077 18.2646 4.57106 19.5061 4.57031 21.0341V21.076C4.57106 22.604 5.79077 23.8455 7.31313 23.8867L7.31322 23.8867C7.35785 23.8879 7.40249 23.8891 7.44713 23.8903C7.44828 23.9349 7.44946 23.9796 7.45066 24.0243L7.45066 24.0244C7.49195 25.5467 8.73355 26.7663 10.2615 26.7671ZM10.3026 25.3608H10.2622C10.2622 25.3608 10.2621 25.3608 10.2621 25.3608C10.262 25.3608 10.2619 25.3608 10.2619 25.3608C9.50067 25.3603 8.87723 24.7523 8.8564 23.9863M10.3029 25.3608C10.3029 25.3608 10.3028 25.3608 10.3027 25.3608C10.3027 25.3608 10.3026 25.3608 10.3026 25.3608M10.3029 25.3608C11.0641 25.3603 11.6875 24.7523 11.7083 23.9863L10.3029 25.3608ZM8.8564 23.9862C8.84922 23.7204 8.84299 23.4546 8.83777 23.1889C8.83036 22.8115 8.52624 22.5073 8.14882 22.4997C7.88293 22.4944 7.61704 22.4882 7.35125 22.481M11.7083 23.9862C11.7155 23.7204 11.7217 23.4545 11.727 23.1887L11.7083 23.9862ZM13.2136 22.481C12.9477 22.4882 12.6818 22.4944 12.416 22.4997C12.0387 22.5073 11.7346 22.8113 11.727 23.1887M13.2137 22.481C13.9798 22.4602 14.5877 21.8367 14.5882 21.0756C14.5882 21.0755 14.5882 21.0754 14.5882 21.0753V21.0348M5.97656 21.0754C5.97656 21.0754 5.97656 21.0753 5.97656 21.0753V21.0348C5.97656 21.0348 5.97656 21.0347 5.97656 21.0347C5.97656 21.0346 5.97656 21.0345 5.97656 21.0345C5.97712 20.2733 6.58504 19.6499 7.35116 19.6291C7.61698 19.6219 7.88282 19.6157 8.14858 19.6105C8.5261 19.603 8.83037 19.2988 8.83777 18.9213C8.84298 18.6554 8.84922 18.3896 8.8564 18.1237M5.97656 21.0754C5.97656 21.0755 5.97656 21.0755 5.97656 21.0756V21.0754ZM5.97656 21.0756C5.97712 21.8368 6.58504 22.4602 7.35116 22.481L5.97656 21.0756ZM14.5882 21.0345C14.5877 20.2733 13.9798 19.6499 13.2137 19.6291L14.5882 21.0345ZM13.2136 19.6291C12.9477 19.6219 12.6819 19.6157 12.4162 19.6105C12.0388 19.603 11.7346 19.2989 11.727 18.9215C11.7217 18.6555 11.7155 18.3896 11.7083 18.1237M8.8564 18.1236C8.87723 17.3576 9.50086 16.7495 10.2622 16.7492H10.3026C11.0639 16.7495 11.6875 17.3575 11.7083 18.1236" fill="url(#paint5_linear_0_1945)"/>
<path fill-rule="evenodd" clip-rule="evenodd" d="M40.458 19.8588C39.9475 20.3693 39.1199 20.3693 38.6094 19.8588C38.0989 19.3484 38.0989 18.5207 38.6094 18.0102C39.1199 17.4998 39.9475 17.4998 40.458 18.0102C40.9685 18.5207 40.9685 19.3484 40.458 19.8588ZM37.615 20.8532C38.6747 21.9129 40.3927 21.9129 41.4524 20.8532C42.512 19.7936 42.512 18.0755 41.4524 17.0159C40.3927 15.9562 38.6747 15.9562 37.615 17.0159C36.5554 18.0755 36.5554 19.7936 37.615 20.8532Z" fill="url(#paint6_linear_0_1945)"/>
<path fill-rule="evenodd" clip-rule="evenodd" d="M36.2158 24.0998C35.7054 24.6103 34.8777 24.6103 34.3672 24.0998C33.8568 23.5893 33.8568 22.7617 34.3672 22.2512C34.8777 21.7407 35.7054 21.7407 36.2158 22.2512C36.7263 22.7617 36.7263 23.5893 36.2158 24.0998ZM33.3729 25.0942C34.4325 26.1538 36.1506 26.1538 37.2102 25.0942C38.2698 24.0345 38.2698 22.3165 37.2102 21.2568C36.1506 20.1972 34.4325 20.1972 33.3729 21.2568C32.3132 22.3165 32.3132 24.0345 33.3729 25.0942Z" fill="url(#paint7_linear_0_1945)"/>
<path fill-rule="evenodd" clip-rule="evenodd" d="M20.0293 19.7581C20.0293 20.8628 20.9248 21.7583 22.0295 21.7583H26.19C27.2947 21.7583 28.1901 20.8628 28.1901 19.7581C28.1901 18.6534 27.2947 17.7579 26.19 17.7579H22.0295C20.9248 17.7579 20.0293 18.6534 20.0293 19.7581ZM22.0295 20.3521C21.7014 20.3521 21.4355 20.0862 21.4355 19.7581C21.4355 19.43 21.7015 19.1641 22.0295 19.1641H26.19C26.518 19.1641 26.7839 19.43 26.7839 19.7581C26.7839 20.0862 26.518 20.3521 26.19 20.3521H22.0295Z" fill="url(#paint8_linear_0_1945)"/>
<path fill-rule="evenodd" clip-rule="evenodd" d="M16.4452 14.4344C16.6277 14.0917 16.4979 13.6658 16.1552 13.4833C15.4407 13.1027 14.9349 12.3786 14.8572 11.5215C14.8091 10.9722 14.782 10.4247 14.7793 9.87975C14.7774 9.49143 14.461 9.17819 14.0727 9.18012C13.6844 9.18205 13.3711 9.49841 13.3731 9.88673C13.376 10.4739 13.4051 11.0605 13.4564 11.6452L13.4565 11.6471C13.5778 12.989 14.3713 14.1264 15.4941 14.7244C15.8368 14.907 16.2626 14.7772 16.4452 14.4344Z" fill="url(#paint9_linear_0_1945)"/>
<path fill-rule="evenodd" clip-rule="evenodd" d="M30.7902 13.7668C26.7312 13.9256 22.6715 13.9424 18.6118 13.8154C18.2237 13.8033 17.8992 14.1081 17.8871 14.4962C17.8749 14.8843 18.1797 15.2088 18.5679 15.221C22.6606 15.349 26.7533 15.332 30.845 15.172M33.1435 11.5216C33.0321 12.7592 32.0269 13.7188 30.7904 13.7668L30.7902 13.7668M33.1435 11.5216C33.1916 10.9723 33.2187 10.4247 33.2214 9.87968C33.2233 9.49136 33.5397 9.17813 33.928 9.18006C34.3163 9.18199 34.6296 9.49835 34.6277 9.88667C34.6247 10.4738 34.5956 11.0604 34.5444 11.6452L34.5442 11.6467C34.3704 13.5831 32.7939 15.0962 30.8451 15.172" fill="url(#paint10_linear_0_1945)"/>
</g>
<defs>
<linearGradient id="paint0_linear_0_1945" x1="21.2305" y1="28.7035" x2="26.7711" y2="28.7035" gradientUnits="userSpaceOnUse">
<stop stop-color="#0CBAF1"/>
<stop offset="1" stop-color="#E95CE9"/>
</linearGradient>
<linearGradient id="paint1_linear_0_1945" x1="28.584" y1="34.004" x2="34.0883" y2="34.004" gradientUnits="userSpaceOnUse">
<stop stop-color="#0CBAF1"/>
<stop offset="1" stop-color="#E95CE9"/>
</linearGradient>
<linearGradient id="paint2_linear_0_1945" x1="0" y1="23.9999" x2="48.0006" y2="23.9999" gradientUnits="userSpaceOnUse">
<stop stop-color="#0CBAF1"/>
<stop offset="1" stop-color="#E95CE9"/>
</linearGradient>
<linearGradient id="paint3_linear_0_1945" x1="14.8809" y1="27.8587" x2="22.7481" y2="27.8587" gradientUnits="userSpaceOnUse">
<stop stop-color="#0CBAF1"/>
<stop offset="1" stop-color="#E95CE9"/>
</linearGradient>
<linearGradient id="paint4_linear_0_1945" x1="25.252" y1="27.8587" x2="33.1192" y2="27.8587" gradientUnits="userSpaceOnUse">
<stop stop-color="#0CBAF1"/>
<stop offset="1" stop-color="#E95CE9"/>
</linearGradient>
<linearGradient id="paint5_linear_0_1945" x1="4.57031" y1="21.055" x2="15.9944" y2="21.055" gradientUnits="userSpaceOnUse">
<stop stop-color="#0CBAF1"/>
<stop offset="1" stop-color="#E95CE9"/>
</linearGradient>
<linearGradient id="paint6_linear_0_1945" x1="36.8203" y1="18.9345" x2="42.2471" y2="18.9345" gradientUnits="userSpaceOnUse">
<stop stop-color="#0CBAF1"/>
<stop offset="1" stop-color="#E95CE9"/>
</linearGradient>
<linearGradient id="paint7_linear_0_1945" x1="32.5781" y1="23.1755" x2="38.0049" y2="23.1755" gradientUnits="userSpaceOnUse">
<stop stop-color="#0CBAF1"/>
<stop offset="1" stop-color="#E95CE9"/>
</linearGradient>
<linearGradient id="paint8_linear_0_1945" x1="20.0293" y1="19.7581" x2="28.1901" y2="19.7581" gradientUnits="userSpaceOnUse">
<stop stop-color="#0CBAF1"/>
<stop offset="1" stop-color="#E95CE9"/>
</linearGradient>
<linearGradient id="paint9_linear_0_1945" x1="13.373" y1="11.9936" x2="16.5279" y2="11.9936" gradientUnits="userSpaceOnUse">
<stop stop-color="#0CBAF1"/>
<stop offset="1" stop-color="#E95CE9"/>
</linearGradient>
<linearGradient id="paint10_linear_0_1945" x1="17.8867" y1="12.243" x2="34.6277" y2="12.243" gradientUnits="userSpaceOnUse">
<stop stop-color="#0CBAF1"/>
<stop offset="1" stop-color="#E95CE9"/>
</linearGradient>
</defs>
</svg>
