<svg width="48" height="48" viewBox="0 0 48 48" fill="none" xmlns="http://www.w3.org/2000/svg">
<mask id="mask0_0_2020" style="mask-type:luminance" maskUnits="userSpaceOnUse" x="0" y="0" width="48" height="48">
<path d="M0 3.8147e-06H48V48H0V3.8147e-06Z" fill="white"/>
</mask>
<g mask="url(#mask0_0_2020)">
<path fill-rule="evenodd" clip-rule="evenodd" d="M7.34961 6.64529C7.34961 8.43398 8.80959 9.89429 10.5984 9.89429C10.9867 9.89429 11.3015 9.57949 11.3015 9.19116C11.3015 8.80284 10.9867 8.48804 10.5984 8.48804C9.58638 8.48804 8.75586 7.65747 8.75586 6.64529V3.24901C8.75586 2.23683 9.58638 1.40626 10.5984 1.40626C11.6137 1.40626 12.4438 2.23735 12.4438 3.24901V4.9471C12.4438 5.33543 12.7586 5.65022 13.1469 5.65022C13.5352 5.65022 13.85 5.33543 13.85 4.9471V3.24901C13.85 1.45979 12.3894 6.67572e-06 10.5984 6.67572e-06C8.80959 6.67572e-06 7.34961 1.46031 7.34961 3.24901V6.64529Z" fill="url(#paint0_linear_0_2020)"/>
<path fill-rule="evenodd" clip-rule="evenodd" d="M16.5039 6.64529C16.5039 8.43402 17.964 9.89429 19.7528 9.89429C20.1411 9.89429 20.4559 9.57949 20.4559 9.19116C20.4559 8.80284 20.1411 8.48804 19.7528 8.48804C18.7407 8.48804 17.9102 7.65743 17.9102 6.64529V3.24901C17.9102 2.23686 18.7407 1.40626 19.7528 1.40626C20.7681 1.40626 21.5982 2.23735 21.5982 3.24901V4.9471C21.5982 5.33543 21.913 5.65022 22.3013 5.65022C22.6896 5.65022 23.0044 5.33543 23.0044 4.9471V3.24901C23.0044 1.45979 21.5438 6.67572e-06 19.7528 6.67572e-06C17.964 6.67572e-06 16.5039 1.46028 16.5039 3.24901V6.64529Z" fill="url(#paint1_linear_0_2020)"/>
<path fill-rule="evenodd" clip-rule="evenodd" d="M25.6602 6.64529C25.6602 8.43402 27.1203 9.89429 28.9091 9.89429C29.2974 9.89429 29.6122 9.57949 29.6122 9.19116C29.6122 8.80284 29.2974 8.48804 28.9091 8.48804C27.897 8.48804 27.0664 7.65743 27.0664 6.64529V3.24901C27.0664 2.23686 27.897 1.40626 28.9091 1.40626C29.9243 1.40626 30.7544 2.23735 30.7544 3.24901V4.9471C30.7544 5.33543 31.0692 5.65022 31.4576 5.65022C31.8459 5.65022 32.1607 5.33543 32.1607 4.9471V3.24901C32.1607 1.45979 30.7001 6.67572e-06 28.9091 6.67572e-06C27.1203 6.67572e-06 25.6602 1.46028 25.6602 3.24901V6.64529Z" fill="url(#paint2_linear_0_2020)"/>
<path fill-rule="evenodd" clip-rule="evenodd" d="M34.8145 6.64529C34.8145 8.4345 36.2751 9.89429 38.0661 9.89429C38.4544 9.89429 38.7692 9.57949 38.7692 9.19116C38.7692 8.80284 38.4544 8.48804 38.0661 8.48804C37.0508 8.48804 36.2207 7.65695 36.2207 6.64529V3.24901C36.2207 2.23735 37.0508 1.40626 38.0661 1.40626C39.0782 1.40626 39.9087 2.23686 39.9087 3.24901V4.9471C39.9087 5.33543 40.2235 5.65022 40.6119 5.65022C41.0002 5.65022 41.315 5.33543 41.315 4.9471V3.24901C41.315 1.46028 39.8549 6.67572e-06 38.0661 6.67572e-06C36.2751 6.67572e-06 34.8145 1.45979 34.8145 3.24901V6.64529Z" fill="url(#paint3_linear_0_2020)"/>
<path fill-rule="evenodd" clip-rule="evenodd" d="M31.9885 38.0954C32.2315 37.7925 32.1829 37.3499 31.8799 37.107L15.0532 23.6122C14.7503 23.3693 14.3077 23.4179 14.0648 23.7208C13.8218 24.0238 13.8705 24.4663 14.1734 24.7093L31.0001 38.204C31.3031 38.447 31.7456 38.3983 31.9885 38.0954Z" fill="url(#paint4_linear_0_2020)"/>
<path fill-rule="evenodd" clip-rule="evenodd" d="M26.6091 25.7324C26.9121 25.9753 27.3546 25.9266 27.5975 25.6236L30.2177 22.3549C30.4606 22.0519 30.4118 21.6094 30.1089 21.3665C29.8059 21.1236 29.3633 21.1724 29.1205 21.4753L26.5002 24.744C26.2574 25.047 26.3061 25.4895 26.6091 25.7324Z" fill="url(#paint5_linear_0_2020)"/>
<path fill-rule="evenodd" clip-rule="evenodd" d="M21.5549 26.7018C21.8474 26.9573 22.2916 26.9274 22.5471 26.635C23.4762 25.5716 24.5944 24.2057 25.4497 22.5674C25.6294 22.2232 25.4961 21.7984 25.1518 21.6187C24.8076 21.439 24.3829 21.5723 24.2031 21.9166C23.4269 23.4035 22.398 24.6684 21.4881 25.7097C21.2326 26.0021 21.2625 26.4463 21.5549 26.7018Z" fill="url(#paint6_linear_0_2020)"/>
<path fill-rule="evenodd" clip-rule="evenodd" d="M26.7593 30.8738C27.0722 31.1038 27.5123 31.0367 27.7423 30.7238C28.5604 29.6111 29.5729 28.3294 30.8543 27.2528C31.1516 27.003 31.1901 26.5594 30.9403 26.2621C30.6905 25.9648 30.2469 25.9263 29.9496 26.1761C28.5364 27.3636 27.4441 28.7554 26.6093 29.8908C26.3793 30.2037 26.4465 30.6438 26.7593 30.8738Z" fill="url(#paint7_linear_0_2020)"/>
<path fill-rule="evenodd" clip-rule="evenodd" d="M30.0129 33.4851C30.3295 33.7099 30.7684 33.6355 30.9933 33.3189C32.0973 31.7643 33.6956 29.8878 36.5893 29.7501C36.9772 29.7317 37.2767 29.4023 37.2582 29.0144C37.2398 28.6265 36.9104 28.327 36.5225 28.3455C32.9373 28.5161 30.9961 30.8863 29.8467 32.5047C29.6219 32.8213 29.6963 33.2602 30.0129 33.4851Z" fill="url(#paint8_linear_0_2020)"/>
<path fill-rule="evenodd" clip-rule="evenodd" d="M19.3892 23.7554C19.7231 23.9536 20.1545 23.8436 20.3528 23.5097C20.7822 22.7864 21.3781 21.6133 21.1857 19.9145C21.142 19.5287 20.7937 19.2513 20.4079 19.295C20.022 19.3387 19.7446 19.6869 19.7883 20.0728C19.9306 21.3291 19.5061 22.1811 19.1436 22.7918C18.9453 23.1257 19.0553 23.5571 19.3892 23.7554Z" fill="url(#paint9_linear_0_2020)"/>
<path fill-rule="evenodd" clip-rule="evenodd" d="M10.4916 47.9738C10.7681 47.9257 11.0674 47.8117 11.3702 47.6723C11.3847 47.6656 11.3991 47.6584 11.4132 47.6507L30.4828 37.236C30.6891 37.1234 30.8255 36.915 30.8461 36.6808C30.8668 36.4466 30.7691 36.2176 30.5857 36.0705L16.3473 24.6487C16.1639 24.5015 15.9192 24.4558 15.695 24.5268C15.4709 24.5978 15.2971 24.7761 15.2319 25.002L9.20739 45.8605C9.20297 45.8758 9.19908 45.8913 9.19571 45.9068C9.1221 46.2467 9.07576 46.5716 9.09068 46.857C9.10507 47.1321 9.1852 47.5119 9.51379 47.7713C9.84059 48.0292 10.2263 48.02 10.4916 47.9738ZM10.5652 46.2272L16.2902 26.4056L28.883 36.5074L10.7608 46.4047C10.6686 46.4467 10.5867 46.4812 10.5142 46.5087C10.5258 46.4275 10.5425 46.3341 10.5652 46.2272Z" fill="url(#paint10_linear_0_2020)"/>
<path fill-rule="evenodd" clip-rule="evenodd" d="M22.2363 41.7278C22.5394 41.485 22.5881 41.0425 22.3453 40.7395L14.6229 31.1035C14.3801 30.8004 13.9376 30.7517 13.6345 30.9945C13.3315 31.2373 13.2827 31.6799 13.5256 31.9829L21.2479 41.6189C21.4908 41.9219 21.9333 41.9707 22.2363 41.7278Z" fill="url(#paint11_linear_0_2020)"/>
<path fill-rule="evenodd" clip-rule="evenodd" d="M18.0636 44.0053C18.3666 43.7624 18.4153 43.3199 18.1723 43.0169L13.033 36.6071C12.7901 36.3041 12.3475 36.2554 12.0446 36.4983C11.7416 36.7412 11.6929 37.1838 11.9358 37.4867L17.0752 43.8966C17.3181 44.1996 17.7606 44.2482 18.0636 44.0053Z" fill="url(#paint12_linear_0_2020)"/>
<path fill-rule="evenodd" clip-rule="evenodd" d="M15.115 45.6156C15.418 45.3727 15.4666 44.9302 15.2237 44.6272L11.9099 40.4949C11.6669 40.192 11.2244 40.1433 10.9215 40.3863C10.6185 40.6292 10.5699 41.0717 10.8128 41.3747L14.1266 45.507C14.3695 45.8099 14.8121 45.8586 15.115 45.6156Z" fill="url(#paint13_linear_0_2020)"/>
<path fill-rule="evenodd" clip-rule="evenodd" d="M25.187 40.1175C25.49 39.8747 25.5388 39.4322 25.296 39.1292L21.2674 34.1012C21.0246 33.7981 20.5821 33.7493 20.279 33.9921C19.976 34.2349 19.9272 34.6774 20.17 34.9805L24.1986 40.0085C24.4414 40.3115 24.8839 40.3604 25.187 40.1175ZM19.0827 32.5013C19.3858 32.2585 19.4347 31.816 19.192 31.5129L15.748 27.213C15.5053 26.9099 15.0628 26.861 14.7597 27.1037C14.4566 27.3465 14.4077 27.789 14.6504 28.0921L18.0943 32.392C18.3371 32.6951 18.7796 32.744 19.0827 32.5013Z" fill="url(#paint14_linear_0_2020)"/>
<path fill-rule="evenodd" clip-rule="evenodd" d="M2.41211 41.0702C2.41211 41.6923 2.91825 42.1985 3.54039 42.1985H11.2017C11.5901 42.1985 11.9049 41.8837 11.9049 41.4954C11.9049 41.107 11.5901 40.7922 11.2017 40.7922H3.81836V5.65005H44.1814V40.7922H21.2176C20.8293 40.7922 20.5145 41.107 20.5145 41.4954C20.5145 41.8837 20.8293 42.1985 21.2176 42.1985H44.4594C45.0815 42.1985 45.5876 41.6923 45.5876 41.0702V5.37218C45.5876 4.75004 45.0816 4.2438 44.4594 4.2438H3.54039C2.91815 4.2438 2.41211 4.75005 2.41211 5.37218V41.0702Z" fill="url(#paint15_linear_0_2020)"/>
<path fill-rule="evenodd" clip-rule="evenodd" d="M2.41211 15.8401C2.41211 16.2284 2.72691 16.5432 3.11523 16.5432H22.2539C22.6422 16.5432 22.957 16.2284 22.957 15.8401C22.957 15.4518 22.6422 15.137 22.2539 15.137H3.11523C2.72691 15.137 2.41211 15.4518 2.41211 15.8401ZM24.7955 15.8401C24.7955 16.2284 25.1103 16.5432 25.4986 16.5432H44.8845C45.2728 16.5432 45.5876 16.2284 45.5876 15.8401C45.5876 15.4518 45.2728 15.137 44.8845 15.137H25.4986C25.1103 15.137 24.7955 15.4518 24.7955 15.8401ZM2.41211 12.5395C2.41211 12.9279 2.72691 13.2427 3.11523 13.2427H44.8845C45.2728 13.2427 45.5876 12.9279 45.5876 12.5395C45.5876 12.1512 45.2728 11.8364 44.8845 11.8364H3.11523C2.72691 11.8364 2.41211 12.1512 2.41211 12.5395Z" fill="url(#paint16_linear_0_2020)"/>
</g>
<defs>
<linearGradient id="paint0_linear_0_2020" x1="7.34961" y1="4.94715" x2="13.85" y2="4.94715" gradientUnits="userSpaceOnUse">
<stop stop-color="#0CBAF1"/>
<stop offset="1" stop-color="#E95CE9"/>
</linearGradient>
<linearGradient id="paint1_linear_0_2020" x1="16.5039" y1="4.94715" x2="23.0044" y2="4.94715" gradientUnits="userSpaceOnUse">
<stop stop-color="#0CBAF1"/>
<stop offset="1" stop-color="#E95CE9"/>
</linearGradient>
<linearGradient id="paint2_linear_0_2020" x1="25.6602" y1="4.94715" x2="32.1607" y2="4.94715" gradientUnits="userSpaceOnUse">
<stop stop-color="#0CBAF1"/>
<stop offset="1" stop-color="#E95CE9"/>
</linearGradient>
<linearGradient id="paint3_linear_0_2020" x1="34.8145" y1="4.94715" x2="41.315" y2="4.94715" gradientUnits="userSpaceOnUse">
<stop stop-color="#0CBAF1"/>
<stop offset="1" stop-color="#E95CE9"/>
</linearGradient>
<linearGradient id="paint4_linear_0_2020" x1="13.9102" y1="30.9081" x2="32.1432" y2="30.9081" gradientUnits="userSpaceOnUse">
<stop stop-color="#0CBAF1"/>
<stop offset="1" stop-color="#E95CE9"/>
</linearGradient>
<linearGradient id="paint5_linear_0_2020" x1="26.3457" y1="23.5495" x2="30.3722" y2="23.5495" gradientUnits="userSpaceOnUse">
<stop stop-color="#0CBAF1"/>
<stop offset="1" stop-color="#E95CE9"/>
</linearGradient>
<linearGradient id="paint6_linear_0_2020" x1="21.3145" y1="24.2071" x2="25.5297" y2="24.2071" gradientUnits="userSpaceOnUse">
<stop stop-color="#0CBAF1"/>
<stop offset="1" stop-color="#E95CE9"/>
</linearGradient>
<linearGradient id="paint7_linear_0_2020" x1="26.4727" y1="28.5109" x2="31.1051" y2="28.5109" gradientUnits="userSpaceOnUse">
<stop stop-color="#0CBAF1"/>
<stop offset="1" stop-color="#E95CE9"/>
</linearGradient>
<linearGradient id="paint8_linear_0_2020" x1="29.7168" y1="30.9798" x2="37.2591" y2="30.9798" gradientUnits="userSpaceOnUse">
<stop stop-color="#0CBAF1"/>
<stop offset="1" stop-color="#E95CE9"/>
</linearGradient>
<linearGradient id="paint9_linear_0_2020" x1="19.0449" y1="21.5722" x2="21.2228" y2="21.5722" gradientUnits="userSpaceOnUse">
<stop stop-color="#0CBAF1"/>
<stop offset="1" stop-color="#E95CE9"/>
</linearGradient>
<linearGradient id="paint10_linear_0_2020" x1="9.08789" y1="36.2466" x2="30.8489" y2="36.2466" gradientUnits="userSpaceOnUse">
<stop stop-color="#0CBAF1"/>
<stop offset="1" stop-color="#E95CE9"/>
</linearGradient>
<linearGradient id="paint11_linear_0_2020" x1="13.3711" y1="36.3612" x2="22.4998" y2="36.3612" gradientUnits="userSpaceOnUse">
<stop stop-color="#0CBAF1"/>
<stop offset="1" stop-color="#E95CE9"/>
</linearGradient>
<linearGradient id="paint12_linear_0_2020" x1="11.7812" y1="40.2518" x2="18.3269" y2="40.2518" gradientUnits="userSpaceOnUse">
<stop stop-color="#0CBAF1"/>
<stop offset="1" stop-color="#E95CE9"/>
</linearGradient>
<linearGradient id="paint13_linear_0_2020" x1="10.6582" y1="43.001" x2="15.3783" y2="43.001" gradientUnits="userSpaceOnUse">
<stop stop-color="#0CBAF1"/>
<stop offset="1" stop-color="#E95CE9"/>
</linearGradient>
<linearGradient id="paint14_linear_0_2020" x1="14.4961" y1="33.6107" x2="25.4505" y2="33.6107" gradientUnits="userSpaceOnUse">
<stop stop-color="#0CBAF1"/>
<stop offset="1" stop-color="#E95CE9"/>
</linearGradient>
<linearGradient id="paint15_linear_0_2020" x1="2.41211" y1="23.2211" x2="45.5876" y2="23.2211" gradientUnits="userSpaceOnUse">
<stop stop-color="#0CBAF1"/>
<stop offset="1" stop-color="#E95CE9"/>
</linearGradient>
<linearGradient id="paint16_linear_0_2020" x1="2.41211" y1="14.1898" x2="45.5876" y2="14.1898" gradientUnits="userSpaceOnUse">
<stop stop-color="#0CBAF1"/>
<stop offset="1" stop-color="#E95CE9"/>
</linearGradient>
</defs>
</svg>
