<svg width="48" height="48" viewBox="0 0 48 48" fill="none" xmlns="http://www.w3.org/2000/svg">
<g clip-path="url(#clip0_0_2096)">
<mask id="mask0_0_2096" style="mask-type:luminance" maskUnits="userSpaceOnUse" x="0" y="0" width="48" height="48">
<path d="M0 3.8147e-06H48V48H0V3.8147e-06Z" fill="white"/>
</mask>
<g mask="url(#mask0_0_2096)">
<path fill-rule="evenodd" clip-rule="evenodd" d="M13.1836 32.2688C11.0898 32.9759 8.78535 32.1372 7.63584 30.2496L7.04936 30.6067L7.63584 30.2496L3.73875 23.8501C2.02716 21.0395 1.68602 17.6033 2.81156 14.5109L6.77428 3.62355L6.11355 3.38306L6.77428 3.62354C7.4105 1.87551 9.34336 0.974194 11.0914 1.61041L28.9455 8.10878L29.186 7.44806L28.9455 8.10878C30.6935 8.745 31.5949 10.6779 30.9586 12.426L26.9959 23.3133C25.8704 26.4056 23.4003 28.8187 20.2825 29.8716L13.1837 32.2688L13.1836 32.2688ZM13.6336 33.6011C10.9166 34.5187 7.92638 33.4304 6.43477 30.981L2.53768 24.5815L3.13821 24.2158L2.53768 24.5815C0.603892 21.406 0.218469 17.5237 1.49012 14.0299L5.45283 3.14258C6.35468 0.664738 9.0945 -0.612877 11.5724 0.288967L29.4265 6.78734C31.9043 7.68919 33.1819 10.4291 32.2801 12.907L28.3174 23.7943C27.0457 27.288 24.255 30.0143 20.7324 31.2039L20.5227 30.5829L20.7324 31.2039L13.6336 33.6011C13.6336 33.6011 13.6336 33.6011 13.6336 33.6011Z" fill="url(#paint0_linear_0_2096)"/>
<path fill-rule="evenodd" clip-rule="evenodd" d="M18.5587 23.6555C17.1364 25.316 14.7836 26.0098 12.6086 25.2182L12.3681 25.8789L12.6086 25.2182C10.4336 24.4265 9.07721 22.3827 9.055 20.1964C10.2772 21.2117 11.7982 22.0869 13.5201 22.7137L13.5201 22.7137C15.2422 23.3405 16.9698 23.6477 18.5587 23.6555ZM12.1277 26.5396C15.412 27.735 19.0138 26.2439 20.5409 23.1934C20.6567 22.9622 20.6362 22.6862 20.4876 22.4746C20.3391 22.263 20.0864 22.15 19.8296 22.1804C18.1218 22.3823 16.0766 22.1477 14.0011 21.3922C11.9257 20.6368 10.2081 19.502 9.02974 18.2495C8.85259 18.0612 8.58639 17.9853 8.33657 18.0519C8.08676 18.1185 7.89363 18.3168 7.83368 18.5683C7.04258 21.8867 8.84335 25.3442 12.1276 26.5396L12.1277 26.5396Z" fill="url(#paint1_linear_0_2096)"/>
<path fill-rule="evenodd" clip-rule="evenodd" d="M13.7016 15.4302C14.0783 15.336 14.3073 14.9542 14.2131 14.5775C13.916 13.3902 12.983 12.3562 11.6851 11.8838M13.7016 15.4302C13.3249 15.5245 12.9431 15.2955 12.8489 14.9188L13.7016 15.4302ZM12.8489 14.9188C12.6726 14.2143 12.0927 13.5286 11.2041 13.2053L12.8489 14.9188ZM7.86056 13.3043C8.08856 13.6187 8.52821 13.6887 8.84256 13.4607C9.4305 13.0342 10.3154 12.8818 11.204 13.2052L11.2041 13.2053M7.86056 13.3043C7.63257 12.99 7.70257 12.5503 8.01692 12.3223L7.86056 13.3043ZM8.01692 12.3223C9.00772 11.6037 10.387 11.4113 11.685 11.8838L8.01692 12.3223Z" fill="url(#paint2_linear_0_2096)"/>
<path fill-rule="evenodd" clip-rule="evenodd" d="M23.9037 19.1436C24.2805 19.0494 24.5094 18.6676 24.4152 18.2909C24.1182 17.1035 23.1852 16.0696 21.8872 15.5972M23.9037 19.1436C23.527 19.2378 23.1452 19.0088 23.051 18.6321L23.9037 19.1436ZM23.051 18.6321C22.8748 17.9276 22.2949 17.242 21.4062 16.9186L23.051 18.6321ZM18.0627 17.0176C18.2906 17.3319 18.7303 17.402 19.0447 17.174C19.6326 16.7476 20.5176 16.5952 21.4062 16.9186L21.4062 16.9186M18.0627 17.0176C17.8347 16.7032 17.9047 16.2635 18.2191 16.0356L18.0627 17.0176ZM18.2191 16.0356C19.2099 15.3171 20.5892 15.1247 21.8872 15.5972L18.2191 16.0356Z" fill="url(#paint3_linear_0_2096)"/>
<path fill-rule="evenodd" clip-rule="evenodd" d="M15.8157 10.525C15.9485 10.16 15.7604 9.75657 15.3955 9.62375C13.3684 8.88597 11.6484 8.83479 10.4224 8.9759C9.81062 9.0463 9.32343 9.16434 8.98332 9.26748C8.81321 9.31906 8.67964 9.367 8.58538 9.40353C8.53824 9.4218 8.50089 9.43724 8.47368 9.44887C8.46008 9.45469 8.449 9.45956 8.4405 9.46336C8.43625 9.46526 8.43264 9.4669 8.42968 9.46825L8.42572 9.47006L8.42411 9.47081L8.4234 9.47114C8.42307 9.4713 8.42275 9.47145 8.71989 10.1087L8.42275 9.47145C8.0708 9.63556 7.91853 10.0539 8.08264 10.4058C8.2463 10.7568 8.66276 10.9092 9.01409 10.7473C9.0142 10.7473 9.01434 10.7472 9.01449 10.7471C9.0161 10.7464 9.02014 10.7446 9.02658 10.7419C9.03946 10.7364 9.06191 10.727 9.09359 10.7147C9.15696 10.6902 9.25713 10.6539 9.39141 10.6132C9.6601 10.5317 10.0643 10.4326 10.5831 10.3729C11.6182 10.2538 13.1157 10.2905 14.9145 10.9452C15.2794 11.078 15.6829 10.8899 15.8157 10.525ZM9.01645 10.7462C9.01645 10.7462 9.01645 10.7462 9.01645 10.7462C9.01645 10.7462 9.01645 10.7462 9.01645 10.7462L9.01645 10.7462Z" fill="url(#paint4_linear_0_2096)"/>
<path fill-rule="evenodd" clip-rule="evenodd" d="M25.5968 16.7801C25.9488 16.616 26.101 16.1977 25.9369 15.8457L25.2997 16.1429C25.9369 15.8457 25.9367 15.8454 25.9366 15.8451L25.9363 15.8444L25.9355 15.8428L25.9336 15.8388C25.9322 15.8359 25.9305 15.8323 25.9285 15.8281C25.9244 15.8198 25.9191 15.8089 25.9124 15.7957C25.899 15.7693 25.8803 15.7335 25.856 15.6892C25.8072 15.6006 25.7357 15.478 25.6386 15.3292C25.4443 15.0315 25.147 14.628 24.7236 14.1808C23.8751 13.2847 22.5246 12.2183 20.4975 11.4805C20.1326 11.3476 19.7291 11.5358 19.5963 11.9007C19.4635 12.2656 19.6516 12.6691 20.0165 12.8019C21.8154 13.4566 22.9862 14.3911 23.7025 15.1477C24.0615 15.5269 24.3075 15.8626 24.4609 16.0978C24.5376 16.2153 24.5911 16.3074 24.6238 16.367C24.6402 16.3967 24.6514 16.4183 24.6577 16.4308C24.6609 16.4371 24.6628 16.441 24.6636 16.4426C24.6637 16.4428 24.6637 16.4429 24.6638 16.443C24.8289 16.7928 25.2458 16.9438 25.5968 16.7801Z" fill="url(#paint5_linear_0_2096)"/>
<path fill-rule="evenodd" clip-rule="evenodd" d="M40.3654 44.3254C39.2159 46.2131 36.9116 47.0518 34.8176 46.3447L27.7188 43.9474C27.7188 43.9474 27.7188 43.9474 27.7188 43.9474C24.601 42.8945 22.1309 40.4815 21.0053 37.3893C21.0053 37.3893 21.0053 37.3893 21.0053 37.3893L19.7488 33.937C19.616 33.572 19.2125 33.3839 18.8476 33.5167C18.4827 33.6495 18.2945 34.053 18.4274 34.4179L19.6839 37.8703L19.6839 37.8703C20.9555 41.364 23.7463 44.0902 27.2688 45.2798L27.2688 45.2798L34.3677 47.677C37.0848 48.5946 40.0749 47.5062 41.5665 45.0568L45.4636 38.6575L44.8631 38.2917L45.4636 38.6575C47.3974 35.482 47.7828 31.5996 46.5112 28.1059L42.5485 17.2184C41.6467 14.7406 38.9068 13.463 36.4289 14.3648L36.4289 14.3648L33.2794 15.5112C32.9145 15.644 32.7263 16.0475 32.8591 16.4124C32.992 16.7773 33.3954 16.9654 33.7604 16.8326L36.9099 15.6863C38.658 15.05 40.5909 15.9514 41.2271 17.6994L45.1898 28.5868C46.3152 31.6791 45.9741 35.1154 44.2625 37.926L40.3654 44.3254L40.966 44.6911L40.3654 44.3254Z" fill="url(#paint6_linear_0_2096)"/>
<path fill-rule="evenodd" clip-rule="evenodd" d="M29.2809 41.4052C29.5307 41.4718 29.7969 41.3959 29.9741 41.2076C31.1524 39.9551 32.87 38.8203 34.9454 38.0649L34.7049 37.4042L34.9454 38.0649C37.0209 37.3094 39.0661 37.0748 40.774 37.2768C41.0307 37.3071 41.2834 37.1941 41.432 36.9826C41.5805 36.771 41.601 36.4949 41.4853 36.2637C39.9581 33.2132 36.3563 31.7222 33.072 32.9175L33.072 32.9175C29.7877 34.1129 27.9869 37.5704 28.778 40.8889C28.838 41.1403 29.0311 41.3386 29.2809 41.4052ZM29.9993 39.2607C30.0215 37.0744 31.3779 35.0306 33.553 34.2389L33.3125 33.5782L33.553 34.2389C35.728 33.4473 38.0807 34.1411 39.5031 35.8016C37.9142 35.8095 36.1865 36.1167 34.4645 36.7434L34.4644 36.7434C32.7425 37.3702 31.2216 38.2454 29.9993 39.2607ZM33.3125 33.5782L33.3114 33.5751L33.3125 33.5782Z" fill="url(#paint7_linear_0_2096)"/>
<path fill-rule="evenodd" clip-rule="evenodd" d="M26.827 30.8627C26.0529 31.4059 25.1588 31.4888 24.4804 31.2299C24.1176 31.0914 23.7112 31.2733 23.5728 31.6361C23.4343 31.9989 23.6162 32.4053 23.979 32.5437C25.1225 32.9801 26.5044 32.8072 27.6349 32.0136L27.635 32.0136C28.7655 31.2199 29.3976 29.979 29.3758 28.7553C29.3689 28.3671 29.0485 28.0579 28.6603 28.0648C28.272 28.0717 27.9629 28.3921 27.9698 28.7803C27.9827 29.5064 27.601 30.3192 26.827 30.8626" fill="url(#paint8_linear_0_2096)"/>
<path fill-rule="evenodd" clip-rule="evenodd" d="M33.2269 27.3534C33.9967 28.3048 35.2786 28.8492 36.6548 28.7304C38.031 28.6117 39.2006 27.8557 39.7962 26.7866C39.9851 26.4473 39.8633 26.0191 39.524 25.8302C39.1848 25.6412 38.7566 25.763 38.5676 26.1023C38.2142 26.7367 37.476 27.2481 36.5339 27.3294L36.5339 27.3294C35.5918 27.4107 34.7769 27.0334 34.3201 26.4688C34.0758 26.1669 33.6331 26.1202 33.3312 26.3645C33.0293 26.6088 32.9826 27.0515 33.2269 27.3534Z" fill="url(#paint9_linear_0_2096)"/>
<path fill-rule="evenodd" clip-rule="evenodd" d="M32.1852 24.6009C32.318 24.9658 32.7215 25.1539 33.0864 25.0211C34.8851 24.3664 36.3827 24.3297 37.4177 24.4489C37.9365 24.5086 38.3408 24.6077 38.6095 24.6891C38.7438 24.7299 38.8439 24.7661 38.9073 24.7907C38.939 24.8029 38.9614 24.8123 38.9743 24.8178C38.9807 24.8206 38.9848 24.8223 38.9864 24.8231L38.9859 24.8228L38.985 24.8224L38.9844 24.8221C38.9841 24.822 38.9839 24.8219 39.2676 24.2134L38.9838 24.8219C38.9848 24.8223 38.9858 24.8228 38.9868 24.8232C38.9872 24.8234 38.9873 24.8235 38.987 24.8233L38.9864 24.8231C38.9865 24.8231 38.9867 24.8232 38.9868 24.8232C39.3381 24.9851 39.7546 24.8327 39.9182 24.4818C40.0823 24.1298 39.9301 23.7115 39.5781 23.5474L39.281 24.1846C39.5781 23.5474 39.5778 23.5472 39.5775 23.5471L39.5768 23.5467L39.5752 23.546L39.5712 23.5442C39.5682 23.5428 39.5646 23.5412 39.5604 23.5393C39.5519 23.5355 39.5408 23.5306 39.5272 23.5248C39.5 23.5132 39.4626 23.4977 39.4155 23.4795C39.3212 23.4429 39.1877 23.395 39.0176 23.3434C38.6775 23.2403 38.1903 23.1222 37.5785 23.0518C36.3525 22.9107 34.6325 22.9619 32.6054 23.6997C32.2405 23.8325 32.0524 24.236 32.1852 24.6009Z" fill="url(#paint10_linear_0_2096)"/>
</g>
</g>
<defs>
<linearGradient id="paint0_linear_0_2096" x1="0.751953" y1="16.9619" x2="32.5693" y2="16.9619" gradientUnits="userSpaceOnUse">
<stop stop-color="#0CBAF1"/>
<stop offset="1" stop-color="#E95CE9"/>
</linearGradient>
<linearGradient id="paint1_linear_0_2096" x1="7.64844" y1="22.49" x2="20.6153" y2="22.49" gradientUnits="userSpaceOnUse">
<stop stop-color="#0CBAF1"/>
<stop offset="1" stop-color="#E95CE9"/>
</linearGradient>
<linearGradient id="paint2_linear_0_2096" x1="7.72656" y1="13.5384" x2="14.2342" y2="13.5384" gradientUnits="userSpaceOnUse">
<stop stop-color="#0CBAF1"/>
<stop offset="1" stop-color="#E95CE9"/>
</linearGradient>
<linearGradient id="paint3_linear_0_2096" x1="17.9287" y1="17.2518" x2="24.4364" y2="17.2518" gradientUnits="userSpaceOnUse">
<stop stop-color="#0CBAF1"/>
<stop offset="1" stop-color="#E95CE9"/>
</linearGradient>
<linearGradient id="paint4_linear_0_2096" x1="8.0166" y1="9.95059" x2="15.8583" y2="9.95059" gradientUnits="userSpaceOnUse">
<stop stop-color="#0CBAF1"/>
<stop offset="1" stop-color="#E95CE9"/>
</linearGradient>
<linearGradient id="paint5_linear_0_2096" x1="19.5537" y1="14.142" x2="26.0029" y2="14.142" gradientUnits="userSpaceOnUse">
<stop stop-color="#0CBAF1"/>
<stop offset="1" stop-color="#E95CE9"/>
</linearGradient>
<linearGradient id="paint6_linear_0_2096" x1="18.3848" y1="31.0378" x2="47.2493" y2="31.0378" gradientUnits="userSpaceOnUse">
<stop stop-color="#0CBAF1"/>
<stop offset="1" stop-color="#E95CE9"/>
</linearGradient>
<linearGradient id="paint7_linear_0_2096" x1="28.5928" y1="36.9671" x2="41.5597" y2="36.9671" gradientUnits="userSpaceOnUse">
<stop stop-color="#0CBAF1"/>
<stop offset="1" stop-color="#E95CE9"/>
</linearGradient>
<linearGradient id="paint8_linear_0_2096" x1="23.5264" y1="30.4211" x2="29.3763" y2="30.4211" gradientUnits="userSpaceOnUse">
<stop stop-color="#0CBAF1"/>
<stop offset="1" stop-color="#E95CE9"/>
</linearGradient>
<linearGradient id="paint9_linear_0_2096" x1="33.0703" y1="27.2439" x2="39.8852" y2="27.2439" gradientUnits="userSpaceOnUse">
<stop stop-color="#0CBAF1"/>
<stop offset="1" stop-color="#E95CE9"/>
</linearGradient>
<linearGradient id="paint10_linear_0_2096" x1="32.1426" y1="24.0265" x2="39.9843" y2="24.0265" gradientUnits="userSpaceOnUse">
<stop stop-color="#0CBAF1"/>
<stop offset="1" stop-color="#E95CE9"/>
</linearGradient>
<clipPath id="clip0_0_2096">
<rect width="48" height="48" fill="white"/>
</clipPath>
</defs>
</svg>
