<svg width="101" height="30" viewBox="0 0 101 30" fill="none" xmlns="http://www.w3.org/2000/svg">
<path d="M12.5392 1.53857H28.5612L16.7818 19.21H0.759766L12.5392 1.53857Z" fill="#19B5F1"/>
<path d="M13.2402 20.8478L8.67773 27.6925H25.4598L37.2391 10.021H24.853L17.636 20.8478H13.2402Z" fill="#CA6AEB"/>
<path d="M42 7H44.6237L48.6687 19.8457H48.7124L52.7574 7H55.3811L49.9587 23H47.4224L42 7Z" fill="url(#paint0_linear_0_1844)"/>
<path d="M67.0044 17.8343V23H64.4681V18.4743L62.8938 16.6686H57.9087V23H55.3724V7H64.6867L66.9169 9.35429V14.2686L65.3208 15.9371L67.0044 17.8343ZM57.9087 14.4743H63.5498L64.4243 13.56V10.1543L63.5498 9.24H57.9087V14.4743Z" fill="url(#paint1_linear_0_1844)"/>
<path d="M68.0974 7H70.4151L77.6304 18.6343H77.6741V7H80.1011V23H77.7834L70.5681 11.3886H70.5244V23H68.0974V7Z" fill="url(#paint2_linear_0_1844)"/>
<path d="M80.8762 20.9657V18.2686L82.8222 16.2571H88.4414V14.5657L87.6324 13.72H84.1996L83.3906 14.5657V15.2971H80.9637V13.9714L83.1939 11.6171H88.6381L90.8683 13.9714V23H88.6163V21.24L86.8671 23H82.8222L80.8762 20.9657ZM86.6266 20.9657L88.4414 19.1371V18.1771H84.0029L83.3032 18.8857V20.28L83.9591 20.9657H86.6266Z" fill="url(#paint3_linear_0_1844)"/>
<path d="M91.2047 20.8743V19.48H93.6316V20.2114L94.2438 20.8743H97.9608L98.573 20.2114V18.9771L97.939 18.3143H93.2381L91.2921 16.2571V13.6971L93.2818 11.6171H98.7698L100.781 13.7429V15.1371H98.3544V14.4057L97.7422 13.7429H94.3313L93.7191 14.4057V15.5486L94.3532 16.2114H99.0322L101 18.2914V20.92L99.0103 23H93.2162L91.2047 20.8743Z" fill="url(#paint4_linear_0_1844)"/>
<defs>
<linearGradient id="paint0_linear_0_1844" x1="42" y1="13.5" x2="104" y2="20.5" gradientUnits="userSpaceOnUse">
<stop stop-color="white"/>
<stop offset="1" stop-color="white" stop-opacity="0"/>
</linearGradient>
<linearGradient id="paint1_linear_0_1844" x1="42" y1="13.5" x2="104" y2="20.5" gradientUnits="userSpaceOnUse">
<stop stop-color="white"/>
<stop offset="1" stop-color="white" stop-opacity="0"/>
</linearGradient>
<linearGradient id="paint2_linear_0_1844" x1="42" y1="13.5" x2="104" y2="20.5" gradientUnits="userSpaceOnUse">
<stop stop-color="white"/>
<stop offset="1" stop-color="white" stop-opacity="0"/>
</linearGradient>
<linearGradient id="paint3_linear_0_1844" x1="42" y1="13.5" x2="104" y2="20.5" gradientUnits="userSpaceOnUse">
<stop stop-color="white"/>
<stop offset="1" stop-color="white" stop-opacity="0"/>
</linearGradient>
<linearGradient id="paint4_linear_0_1844" x1="42" y1="13.5" x2="104" y2="20.5" gradientUnits="userSpaceOnUse">
<stop stop-color="white"/>
<stop offset="1" stop-color="white" stop-opacity="0"/>
</linearGradient>
</defs>
</svg>
