<svg width="22" height="22" viewBox="0 0 22 22" fill="none" xmlns="http://www.w3.org/2000/svg">
<path fill-rule="evenodd" clip-rule="evenodd" d="M11.001 0.871094C5.10161 0.871094 0.355469 5.61723 0.355469 11.5166C0.355469 16.2184 3.41606 20.2105 7.62992 21.6299C8.1622 21.7186 8.33962 21.4081 8.33962 21.0976C8.33962 20.8315 8.33962 20.1661 8.33962 19.279C5.36774 19.9444 4.74675 17.8596 4.74675 17.8596C4.25883 16.6176 3.54913 16.3071 3.54913 16.3071C2.57329 15.6418 3.63784 15.6418 3.63784 15.6418C4.7024 15.7305 5.27903 16.7507 5.27903 16.7507C6.21052 18.3919 7.76299 17.904 8.38398 17.6378C8.47269 16.9281 8.73883 16.4846 9.04933 16.2184C6.69844 15.9523 4.21448 15.0208 4.21448 10.94C4.21448 9.78673 4.61368 8.81089 5.32339 8.10119C5.23467 7.83505 4.83547 6.7705 5.4121 5.26238C5.4121 5.26238 6.29923 4.99624 8.33962 6.37129C9.1824 6.14951 10.1139 6.01644 11.001 6.01644C11.8881 6.01644 12.8196 6.14951 13.6624 6.37129C15.7028 4.99624 16.5899 5.26238 16.5899 5.26238C17.1665 6.72614 16.8117 7.7907 16.6786 8.10119C17.344 8.85525 17.7875 9.78673 17.7875 10.94C17.7875 15.0208 15.3036 15.9079 12.9083 16.1741C13.3075 16.4846 13.618 17.1499 13.618 18.1257C13.618 19.5451 13.618 20.6984 13.618 21.0533C13.618 21.3194 13.7955 21.6743 14.3721 21.5855C18.586 20.2105 21.6465 16.2184 21.6465 11.5166C21.6465 5.61723 16.9004 0.871094 11.001 0.871094Z" fill="white"/>
</svg>
