<svg width="24" height="24" viewBox="0 0 24 24" fill="none" xmlns="http://www.w3.org/2000/svg">
<path d="M11.9962 2.87619C14.9677 2.87619 15.3196 2.88732 16.4934 2.94085C17.1992 2.94949 17.8983 3.07908 18.5602 3.32401C19.0403 3.50914 19.4762 3.79275 19.8401 4.15656C20.2039 4.52038 20.4875 4.95635 20.6726 5.4364C20.9175 6.09837 21.0471 6.79744 21.0558 7.50322C21.1088 8.67707 21.1204 9.02896 21.1204 12.0004C21.1204 14.9719 21.1093 15.3237 21.0558 16.4976C21.0471 17.2034 20.9175 17.9024 20.6726 18.5644C20.4875 19.0445 20.2039 19.4804 19.8401 19.8443C19.4762 20.2081 19.0403 20.4917 18.5602 20.6768C17.8983 20.9217 17.1992 21.0513 16.4934 21.06C15.3201 21.113 14.9682 21.1246 11.9962 21.1246C9.02424 21.1246 8.67235 21.1135 7.49903 21.06C6.79325 21.0513 6.09418 20.9217 5.43221 20.6768C4.95216 20.4917 4.51619 20.2081 4.15237 19.8443C3.78855 19.4804 3.50495 19.0445 3.31981 18.5644C3.07489 17.9024 2.94529 17.2034 2.93666 16.4976C2.88366 15.3237 2.872 14.9719 2.872 12.0004C2.872 9.02896 2.88313 8.67707 2.93666 7.50322C2.94529 6.79744 3.07489 6.09837 3.31981 5.4364C3.50495 4.95635 3.78855 4.52038 4.15237 4.15656C4.51619 3.79275 4.95216 3.50914 5.43221 3.32401C6.09418 3.07908 6.79325 2.94949 7.49903 2.94085C8.67288 2.88785 9.02477 2.87619 11.9962 2.87619ZM11.9962 0.87085C8.97548 0.87085 8.59497 0.883568 7.40788 0.937624C6.48419 0.955996 5.57031 1.13089 4.70511 1.45486C3.96291 1.7345 3.29066 2.17272 2.73527 2.73894C2.16854 3.29453 1.72995 3.96716 1.45014 4.70984C1.12617 5.57504 0.951274 6.48891 0.932902 7.4126C0.879906 8.59864 0.867188 8.97914 0.867188 11.9999C0.867188 15.0206 0.879906 15.4011 0.933962 16.5882C0.952334 17.5119 1.12723 18.4258 1.4512 19.291C1.7307 20.0336 2.16892 20.7062 2.73527 21.2619C3.29097 21.8282 3.96359 22.2665 4.70617 22.546C5.57137 22.8699 6.48525 23.0448 7.40894 23.0632C8.59603 23.1162 8.97495 23.13 11.9973 23.13C15.0196 23.13 15.3985 23.1172 16.5856 23.0632C17.5093 23.0448 18.4232 22.8699 19.2884 22.546C20.0274 22.2595 20.6986 21.8219 21.2589 21.2613C21.8192 20.7006 22.2563 20.0292 22.5423 19.2899C22.8663 18.4247 23.0412 17.5108 23.0595 16.5872C23.1125 15.4011 23.1252 15.0206 23.1252 11.9999C23.1252 8.97914 23.1125 8.59864 23.0585 7.41154C23.0401 6.48785 22.8652 5.57398 22.5412 4.70877C22.2617 3.96619 21.8235 3.29357 21.2572 2.73788C20.7015 2.17153 20.0288 1.7333 19.2863 1.4538C18.4211 1.12983 17.5072 0.954936 16.5835 0.936564C15.3975 0.883569 15.017 0.87085 11.9962 0.87085Z" fill="white"/>
<path d="M12.0002 6.28516C10.8699 6.28516 9.76491 6.62034 8.82508 7.24831C7.88525 7.87629 7.15275 8.76885 6.72019 9.81313C6.28763 10.8574 6.17446 12.0065 6.39497 13.1151C6.61549 14.2237 7.15979 15.242 7.95905 16.0413C8.75831 16.8406 9.77663 17.3849 10.8852 17.6054C11.9938 17.8259 13.1429 17.7127 14.1872 17.2802C15.2315 16.8476 16.1241 16.1151 16.752 15.1753C17.38 14.2354 17.7152 13.1305 17.7152 12.0002C17.7152 10.4845 17.1131 9.03082 16.0413 7.95905C14.9695 6.88727 13.5159 6.28516 12.0002 6.28516ZM12.0002 15.7099C11.2665 15.7099 10.5492 15.4923 9.93919 15.0847C9.32914 14.677 8.85366 14.0977 8.57289 13.4198C8.29211 12.742 8.21865 11.9961 8.36178 11.2765C8.50492 10.5568 8.85824 9.89585 9.37704 9.37704C9.89585 8.85823 10.5569 8.50492 11.2765 8.36178C11.9961 8.21864 12.742 8.29211 13.4198 8.57288C14.0977 8.85366 14.677 9.32914 15.0847 9.93919C15.4923 10.5492 15.7099 11.2665 15.7099 12.0002C15.7099 12.984 15.319 13.9276 14.6233 14.6233C13.9276 15.319 12.984 15.7099 12.0002 15.7099Z" fill="white"/>
<path d="M17.937 7.3946C18.6746 7.3946 19.2725 6.79668 19.2725 6.05912C19.2725 5.32155 18.6746 4.72363 17.937 4.72363C17.1995 4.72363 16.6016 5.32155 16.6016 6.05912C16.6016 6.79668 17.1995 7.3946 17.937 7.3946Z" fill="white"/>
</svg>
