<svg width="15" height="17" viewBox="0 0 15 17" fill="none" xmlns="http://www.w3.org/2000/svg">
<path fill-rule="evenodd" clip-rule="evenodd" d="M7.20801 0.666748C10.9988 0.666748 14.083 3.77425 14.083 7.59425C14.083 12.2901 8.70301 16.9167 7.20801 16.9167C5.71301 16.9167 0.333008 12.2901 0.333008 7.59425C0.333008 3.77425 3.41717 0.666748 7.20801 0.666748ZM7.20801 1.91675C4.10634 1.91675 1.58301 4.46425 1.58301 7.59425C1.58301 11.5767 6.26967 15.4567 7.20801 15.6634C8.14634 15.4559 12.833 11.5759 12.833 7.59425C12.833 4.46425 10.3097 1.91675 7.20801 1.91675ZM7.20884 4.83341C8.70217 4.83341 9.91717 6.04841 9.91717 7.54258C9.91717 9.03591 8.70217 10.2501 7.20884 10.2501C5.71551 10.2501 4.50051 9.03591 4.50051 7.54258C4.50051 6.04841 5.71551 4.83341 7.20884 4.83341ZM7.20884 6.08341C6.40467 6.08341 5.75051 6.73758 5.75051 7.54258C5.75051 8.34675 6.40467 9.00008 7.20884 9.00008C8.01301 9.00008 8.66717 8.34675 8.66717 7.54258C8.66717 6.73758 8.01301 6.08341 7.20884 6.08341Z" fill="#B0B0B2"/>
</svg>
