<svg width="19" height="17" viewBox="0 0 19 17" fill="none" xmlns="http://www.w3.org/2000/svg">
<path fill-rule="evenodd" clip-rule="evenodd" d="M13.8822 0.666748C16.6572 0.666748 18.7497 2.93091 18.7497 5.93341V11.6567C18.7497 13.1934 18.2063 14.5817 17.2188 15.5667C16.333 16.4492 15.1838 16.9167 13.8955 16.9167H5.68467C4.39884 16.9167 3.25051 16.4501 2.36384 15.5667C1.37634 14.5817 0.833008 13.1934 0.833008 11.6567V5.93341C0.833008 2.93091 2.92551 0.666748 5.70051 0.666748H13.8822ZM13.8822 1.91675H5.70051C3.60467 1.91675 2.08301 3.60591 2.08301 5.93341V11.6567C2.08301 12.8592 2.49634 13.9334 3.24634 14.6809C3.89301 15.3267 4.73717 15.6667 5.68717 15.6667H13.8822C13.8838 15.6651 13.8905 15.6667 13.8955 15.6667C14.8463 15.6667 15.6897 15.3267 16.3363 14.6809C17.0872 13.9334 17.4997 12.8592 17.4997 11.6567V5.93341C17.4997 3.60591 15.978 1.91675 13.8822 1.91675ZM15.1955 5.77408C15.413 6.04158 15.3722 6.43491 15.1047 6.65325L11.4013 9.66325C10.933 10.0349 10.373 10.2207 9.81384 10.2207C9.25634 10.2207 8.70051 10.0366 8.23551 9.66825L4.49801 6.65491C4.22884 6.43825 4.18717 6.04408 4.40301 5.77575C4.62051 5.50825 5.01384 5.46575 5.28217 5.68158L9.01634 8.69158C9.48551 9.06325 10.1463 9.06325 10.6188 8.68825L14.3155 5.68325C14.5838 5.46408 14.9772 5.50575 15.1955 5.77408Z" fill="#B0B0B2"/>
</svg>
