<svg width="19" height="18" viewBox="0 0 19 18" fill="none" xmlns="http://www.w3.org/2000/svg">
<path fill-rule="evenodd" clip-rule="evenodd" d="M4.54797 0.666954C5.4788 0.679454 6.14213 1.37695 6.9813 2.25945C7.1888 2.47695 7.41297 2.71445 7.6638 2.96445C8.87963 4.18112 8.5338 5.17362 8.25463 5.97029C7.9513 6.83945 7.6888 7.58945 9.26047 9.16112C10.8321 10.7328 11.5813 10.4703 12.4496 10.1645C13.2471 9.88612 14.2371 9.53779 15.4555 10.7545C15.703 11.002 15.9363 11.2236 16.153 11.4295C17.0388 12.2728 17.7388 12.9386 17.7506 13.872C17.7596 14.667 17.2763 15.4786 16.083 16.672L15.5546 16.3136L16.0021 16.7495C15.738 17.0203 15.0355 17.742 13.6596 17.7503H13.6346C11.558 17.7503 8.85047 16.097 5.58713 12.8345C2.31047 9.55862 0.654632 6.84279 0.667062 4.76195C0.674632 3.38695 1.39547 2.68279 1.6663 2.41862L1.68942 2.39337L1.74547 2.33695C2.9413 1.14112 3.76297 0.649454 4.54797 0.666954ZM4.53213 1.91695H4.52547C4.15125 1.91695 3.58294 2.29195 2.79032 3.06187L2.63116 3.21817L2.63297 3.21779C2.63297 3.21779 2.61937 3.23339 2.59619 3.25703L2.54047 3.31279C2.3388 3.50862 1.9213 3.91612 1.91709 4.76862C1.91047 5.96112 2.69463 8.17529 6.47047 11.9503C10.228 15.707 12.4388 16.5003 13.6346 16.5003H13.6521C14.5046 16.4953 14.9113 16.0778 15.1071 15.877C15.1663 15.8161 15.2146 15.7703 15.2488 15.7428C16.0796 14.907 16.5046 14.2861 16.5005 13.887C16.4955 13.4803 15.9896 13.0003 15.2905 12.3345C15.068 12.1236 14.8263 11.8928 14.5713 11.6378C13.9096 10.9786 13.5838 11.0911 12.863 11.3445C11.8671 11.6936 10.503 12.172 8.37713 10.0445C6.25047 7.91862 6.72713 6.55445 7.07463 5.55779C7.3263 4.83779 7.4413 4.51029 6.78047 3.84862C6.52213 3.59029 6.28963 3.34529 6.07547 3.12029C5.4138 2.42529 4.9363 1.92279 4.53213 1.91695ZM11.7055 3.63154C13.4397 3.9682 14.7789 5.30654 15.1164 7.04154C15.1822 7.38154 14.9614 7.70904 14.623 7.77487C14.5822 7.78237 14.5422 7.78654 14.5022 7.78654C14.2089 7.78654 13.948 7.57987 13.8897 7.28154C13.6497 6.0482 12.6989 5.09737 11.4672 4.8582C11.128 4.79237 10.9072 4.46487 10.9731 4.1257C11.0389 3.78654 11.3722 3.56487 11.7055 3.63154ZM11.6556 0.671704C15.054 1.0492 17.6931 3.68504 18.074 7.08254C18.1123 7.42587 17.8656 7.73504 17.5231 7.77337C17.4998 7.77587 17.4756 7.77754 17.4523 7.77754C17.1381 7.77754 16.8681 7.5417 16.8323 7.22254C16.5165 4.4092 14.3315 2.22587 11.5173 1.91337C11.1748 1.87504 10.9273 1.5667 10.9656 1.22337C11.0031 0.880871 11.309 0.628371 11.6556 0.671704Z" fill="#B0B0B2"/>
</svg>
 