<svg width="20" height="16" viewBox="0 0 20 16" fill="none" xmlns="http://www.w3.org/2000/svg">
<path d="M19.2009 2.04349C18.5125 2.34945 17.7859 2.54067 17.021 2.6554C17.7859 2.19647 18.3978 1.46983 18.6655 0.590219C17.9389 1.0109 17.1357 1.31686 16.2561 1.50808C15.5677 0.781439 14.5734 0.32251 13.5025 0.32251C11.4374 0.32251 9.75462 2.00525 9.75462 4.07043C9.75462 4.37638 9.79287 4.64409 9.86935 4.9118C6.77158 4.75882 3.97976 3.2673 2.1058 0.972659C1.79985 1.54632 1.60863 2.15823 1.60863 2.84662C1.60863 4.14692 2.25878 5.29424 3.29137 5.98263C2.67947 5.94439 2.1058 5.79141 1.57039 5.52371V5.56195C1.57039 7.39767 2.87069 8.92743 4.59167 9.27163C4.28572 9.34811 3.94152 9.38636 3.59732 9.38636C3.36786 9.38636 3.10015 9.34811 2.87069 9.30987C3.36786 10.8014 4.74465 11.9105 6.38914 11.9105C5.08884 12.9048 3.48259 13.5167 1.72336 13.5167C1.41741 13.5167 1.11146 13.5167 0.84375 13.4785C2.52649 14.5493 4.47694 15.1612 6.61861 15.1612C13.5408 15.1612 17.327 9.4246 17.327 4.45287C17.327 4.29989 17.327 4.10867 17.327 3.9557C18.0536 3.45853 18.7037 2.80838 19.2009 2.04349Z" fill="white"/>
</svg>
