<svg width="1097" height="721" viewBox="0 0 1097 721" fill="none" xmlns="http://www.w3.org/2000/svg">
<path opacity="0.2" d="M-88.1934 0L1408.61 728.783" stroke="white" stroke-opacity="0.4"/>
<path opacity="0.2" d="M-176.24 42.8696L1320.57 771.652" stroke="white" stroke-opacity="0.4"/>
<path opacity="0.2" d="M-264.289 85.7393L1232.52 814.522" stroke="white" stroke-opacity="0.4"/>
<path opacity="0.2" d="M-352.336 128.609L1144.47 857.392" stroke="white" stroke-opacity="0.4"/>
<path opacity="0.2" d="M-440.383 171.479L1056.42 900.261" stroke="white" stroke-opacity="0.4"/>
<path opacity="0.2" d="M-528.43 214.348L968.378 943.13" stroke="white" stroke-opacity="0.4"/>
<path opacity="0.2" d="M-616.479 257.217L880.329 986" stroke="white" stroke-opacity="0.4"/>
<path opacity="0.2" d="M-704.527 300.087L792.28 1028.87" stroke="white" stroke-opacity="0.4"/>
<path opacity="0.2" d="M-792.574 342.957L704.233 1071.74" stroke="white" stroke-opacity="0.4"/>
<path opacity="0.2" d="M-880.621 385.826L616.186 1114.61" stroke="white" stroke-opacity="0.4"/>
<path opacity="0.2" d="M-968.668 428.696L528.139 1157.48" stroke="white" stroke-opacity="0.4"/>
<path opacity="0.2" d="M-1056.71 471.565L440.093 1200.35" stroke="white" stroke-opacity="0.4"/>
<path opacity="0.2" d="M-1144.76 514.435L352.044 1243.22" stroke="white" stroke-opacity="0.4"/>
<path opacity="0.2" d="M-1232.81 557.304L263.995 1286.09" stroke="white" stroke-opacity="0.4"/>
<path opacity="0.2" d="M-1320.86 600.174L175.948 1328.96" stroke="white" stroke-opacity="0.4"/>
<path opacity="0.2" d="M-1408.91 643.043L87.9011 1371.83" stroke="white" stroke-opacity="0.4"/>
<path opacity="0.2" d="M-1496.95 685.913L-0.145725 1414.7" stroke="white" stroke-opacity="0.4"/>
<path opacity="0.2" d="M87.9023 85.7393L-1408.91 814.522" stroke="white" stroke-opacity="0.4"/>
<path opacity="0.2" d="M175.949 128.609L-1320.86 857.392" stroke="white" stroke-opacity="0.4"/>
<path opacity="0.2" d="M263.996 171.479L-1232.81 900.261" stroke="white" stroke-opacity="0.4"/>
<path opacity="0.2" d="M352.045 214.348L-1144.76 943.13" stroke="white" stroke-opacity="0.4"/>
<path opacity="0.2" d="M440.092 257.217L-1056.72 986" stroke="white" stroke-opacity="0.4"/>
<path opacity="0.2" d="M528.139 300.087L-968.669 1028.87" stroke="white" stroke-opacity="0.4"/>
<path opacity="0.2" d="M616.188 342.957L-880.62 1071.74" stroke="white" stroke-opacity="0.4"/>
<path opacity="0.2" d="M704.217 385.826L-792.591 1114.61" stroke="white" stroke-opacity="0.4"/>
<path opacity="0.2" d="M792.265 428.696L-704.543 1157.48" stroke="white" stroke-opacity="0.4"/>
<path opacity="0.2" d="M880.312 471.565L-616.496 1200.35" stroke="white" stroke-opacity="0.4"/>
<path opacity="0.2" d="M968.359 514.435L-528.448 1243.22" stroke="white" stroke-opacity="0.4"/>
<path opacity="0.2" d="M1056.41 557.304L-440.401 1286.09" stroke="white" stroke-opacity="0.4"/>
<path opacity="0.2" d="M1144.45 600.174L-352.353 1328.96" stroke="white" stroke-opacity="0.4"/>
<path opacity="0.2" d="M1232.5 643.043L-264.306 1371.83" stroke="white" stroke-opacity="0.4"/>
</svg>
